<?xml version="1.0" encoding="utf-8"?>
<!-- Generator: Adobe Illustrator 16.0.0, SVG Export Plug-In . SVG Version: 6.00 Build 0)  -->
<!DOCTYPE svg PUBLIC "-//W3C//DTD SVG 1.1//EN" "http://www.w3.org/Graphics/SVG/1.1/DTD/svg11.dtd">
<svg version="1.1" id="圖層_1" xmlns="http://www.w3.org/2000/svg" xmlns:xlink="http://www.w3.org/1999/xlink" x="0px" y="0px"
	 width="45.354px" height="45.404px" viewBox="0 0 45.354 45.404" enable-background="new 0 0 45.354 45.404" xml:space="preserve">
<g>
	<path fill="#FFFFFF" d="M25.059,21.273V2.849c0-1.315-1.066-2.382-2.383-2.382c-1.315,0-2.382,1.066-2.382,2.382v19.409v0.001
		v0.001c0,0.004,0.002,0.009,0.002,0.014c0.001,0.15,0.016,0.303,0.046,0.451c0.015,0.076,0.043,0.148,0.065,0.223
		s0.039,0.148,0.069,0.221c0.037,0.091,0.087,0.174,0.135,0.257c0.028,0.051,0.05,0.104,0.083,0.153
		c0.088,0.133,0.189,0.258,0.303,0.37l7.942,7.943c0.465,0.466,1.075,0.698,1.684,0.698c0.61,0,1.22-0.232,1.685-0.698
		c0.931-0.93,0.931-2.438,0.002-3.368L25.059,21.273z"/>
	<path fill="#FFFFFF" d="M42.087,18.993c-1.801,0-3.268,1.466-3.268,3.267s1.467,3.267,3.268,3.267c1.8,0,3.267-1.466,3.267-3.267
		S43.887,18.993,42.087,18.993z"/>
	<circle fill="#FFFFFF" cx="36.402" cy="35.985" r="2.314"/>
	<path fill="#FFFFFF" d="M22.677,38.402c-1.801,0-3.266,1.466-3.267,3.269c0,1.802,1.466,3.266,3.267,3.266
		c1.802,0,3.268-1.465,3.268-3.267C25.945,39.869,24.479,38.403,22.677,38.402z"/>
	<circle fill="#FFFFFF" cx="8.952" cy="35.985" r="2.314"/>
	<path fill="#FFFFFF" d="M0.957,19.951C0.34,20.567,0,21.388,0,22.26c0,1.801,1.466,3.267,3.267,3.267s3.267-1.465,3.267-3.265
		c0.001-0.874-0.34-1.695-0.956-2.312C4.343,18.717,2.192,18.715,0.957,19.951z"/>
	<circle fill="#FFFFFF" cx="8.951" cy="8.536" r="2.314"/>
	<circle fill="#FFFFFF" cx="36.402" cy="8.535" r="2.314"/>
</g>
</svg>
