<?xml version="1.0" encoding="utf-8"?>
<!-- Generator: Adobe Illustrator 16.0.0, SVG Export Plug-In . SVG Version: 6.00 Build 0)  -->
<!DOCTYPE svg PUBLIC "-//W3C//DTD SVG 1.1//EN" "http://www.w3.org/Graphics/SVG/1.1/DTD/svg11.dtd">
<svg version="1.1" id="圖層_1" xmlns="http://www.w3.org/2000/svg" xmlns:xlink="http://www.w3.org/1999/xlink" x="0px" y="0px"
	 width="45.354px" height="45.404px" viewBox="0 0 45.354 45.404" enable-background="new 0 0 45.354 45.404" xml:space="preserve">
<g>
	<path d="M22.677,0.025C10.153,0.025,0,10.177,0,22.702C0,35.225,10.153,45.38,22.677,45.38s22.678-10.153,22.678-22.678
		S35.201,0.025,22.677,0.025z M22.677,41.858c-10.579,0-19.155-8.578-19.155-19.156c0-10.579,8.576-19.155,19.155-19.155
		s19.154,8.576,19.154,19.155C41.831,33.28,33.256,41.858,22.677,41.858z"/>
	<rect x="20.089" y="33.276" width="5.941" height="5.943"/>
	<path d="M23.088,6.477c-2.819,0-5.137,0.784-6.889,2.33c-1.754,1.547-2.818,3.773-3.164,6.616l-0.124,1.017l5.512,0.656
		l0.152-0.972c0.268-1.702,0.81-2.944,1.611-3.694c0.788-0.737,1.756-1.097,2.958-1.097c1.246,0,2.265,0.401,3.116,1.228
		c0.842,0.814,1.25,1.724,1.25,2.778c0,0.562-0.131,1.062-0.398,1.531c-0.204,0.358-0.733,1.038-2.102,2.244
		c-1.236,1.092-2.079,1.909-2.575,2.501c-0.69,0.833-1.203,1.68-1.516,2.508c-0.425,1.092-0.642,2.388-0.642,3.854
		c0,0.233,0.008,0.586,0.021,1.055l0.027,0.992h5.286l0.02-1c0.029-1.598,0.152-2.363,0.25-2.723c0.133-0.49,0.329-0.91,0.601-1.281
		c0.206-0.283,0.728-0.863,2.042-2.027c1.767-1.563,2.933-2.879,3.564-4.019c0.654-1.177,0.984-2.478,0.984-3.864
		c0-2.396-0.932-4.46-2.769-6.139C28.493,7.317,26.066,6.477,23.088,6.477z"/>
</g>
</svg>
