<?xml version="1.0" encoding="utf-8"?>
<!-- Generator: Adobe Illustrator 16.0.0, SVG Export Plug-In . SVG Version: 6.00 Build 0)  -->
<!DOCTYPE svg PUBLIC "-//W3C//DTD SVG 1.1//EN" "http://www.w3.org/Graphics/SVG/1.1/DTD/svg11.dtd">
<svg version="1.1" id="圖層_1" xmlns="http://www.w3.org/2000/svg" xmlns:xlink="http://www.w3.org/1999/xlink" x="0px" y="0px"
	 width="45.354px" height="45.404px" viewBox="0 0 45.354 45.404" enable-background="new 0 0 45.354 45.404" xml:space="preserve">
<g>
	<path fill="#372F2D" d="M22.678,0.022c-12.529,0-22.679,10.156-22.679,22.682c0,12.522,10.149,22.677,22.679,22.677
		c12.521,0,22.676-10.154,22.676-22.677C45.354,10.178,35.198,0.022,22.678,0.022z"/>
</g>
<path fill="#FFFFFF" d="M22.678,30.651c-8.839,0-16.009-7.947-16.009-7.947s7.17-7.953,16.009-7.953
	c8.836,0,16.001,7.953,16.001,7.953S31.514,30.651,22.678,30.651z"/>
<path fill="#372F2D" d="M22.678,17.265c-3.006,0-5.438,2.434-5.438,5.438c0,2.999,2.432,5.437,5.438,5.437
	c3.001,0,5.438-2.438,5.438-5.437C28.115,19.699,25.679,17.265,22.678,17.265z"/>
</svg>
