<?xml version="1.0" encoding="utf-8"?>
<!-- Generator: Adobe Illustrator 16.0.0, SVG Export Plug-In . SVG Version: 6.00 Build 0)  -->
<!DOCTYPE svg PUBLIC "-//W3C//DTD SVG 1.1//EN" "http://www.w3.org/Graphics/SVG/1.1/DTD/svg11.dtd">
<svg version="1.1" id="圖層_1" xmlns="http://www.w3.org/2000/svg" xmlns:xlink="http://www.w3.org/1999/xlink" x="0px" y="0px"
	 width="45.354px" height="45.404px" viewBox="0 0 45.354 45.404" enable-background="new 0 0 45.354 45.404" xml:space="preserve">
<g>
	<path fill="#7FA9C2" d="M44.697,28.735l-1.104-7.894c-0.254-1.829-1.966-3.164-3.844-2.903l-1.526,0.213l-0.02-0.191
		c1.271-0.591,2.12-1.912,2.034-3.393c-0.112-1.928-1.771-3.417-3.717-3.31c-1.286,0.075-2.407,0.841-2.956,1.969
		c-0.552-0.286-1.156-0.419-1.808-0.382c-0.008,0.001-0.016,0.001-0.024,0.002c-0.634-1.221-1.958-1.987-3.351-1.911
		c-1.539,0.089-2.813,1.161-3.208,2.597c-0.417-0.158-0.857-0.229-1.31-0.222c-0.539-0.793-1.396-1.369-2.42-1.511
		c-1.255-0.175-2.528,0.367-3.284,1.354c-0.488-0.388-1.073-0.642-1.697-0.729c-0.008-0.001-0.017-0.002-0.025-0.003
		c-0.38-1.337-1.509-2.333-2.913-2.529c-1.514-0.214-2.992,0.6-3.653,1.92c-0.415-0.261-0.88-0.431-1.375-0.5
		c-0.162-0.023-0.327-0.035-0.49-0.035c-1.743,0-3.239,1.303-3.48,3.032c-0.169,1.211,0.303,2.365,1.156,3.122l-0.078-0.011
		c-1.884-0.262-3.59,1.075-3.846,2.903l-1.103,7.894c-0.26,1.86,1.043,3.585,2.904,3.845l2.059,0.288l-0.404,3.937
		c-0.073,0.806,0.518,1.549,1.317,1.661l10.776,1.504c0.8,0.112,1.57-0.441,1.722-1.236l3.238-18.293
		c0.244,0.132,0.506,0.233,0.781,0.305l3.275,18.506c0.151,0.795,0.922,1.349,1.722,1.236l10.776-1.504
		c0.8-0.112,1.391-0.855,1.317-1.661l-0.404-3.937l2.06-0.288C43.655,32.32,44.956,30.595,44.697,28.735z M32.842,35.719
		c-0.137,0.181-0.335,0.298-0.558,0.329c-0.464,0.063-0.894-0.267-0.957-0.722c-0.031-0.224,0.027-0.446,0.163-0.627
		c0.137-0.18,0.336-0.296,0.56-0.329c0.04-0.005,0.079-0.008,0.119-0.008c0.418,0,0.778,0.313,0.836,0.73
		C33.036,35.316,32.979,35.539,32.842,35.719z M34.257,20.135c0.065-0.01,0.129-0.014,0.192-0.014c0.678,0,1.26,0.508,1.354,1.18
		c0.051,0.362-0.042,0.722-0.264,1.015c-0.221,0.292-0.541,0.479-0.903,0.53c-0.064,0.009-0.128,0.013-0.19,0.013
		c-0.679,0-1.26-0.506-1.354-1.18C32.988,20.931,33.51,20.238,34.257,20.135z M30.208,22.077c0.095-0.013,0.188-0.019,0.279-0.019
		c0.988,0,1.838,0.739,1.975,1.723c0.152,1.091-0.611,2.102-1.7,2.254c-1.105,0.153-2.107-0.629-2.257-1.701
		c-0.074-0.529,0.063-1.055,0.384-1.481C29.211,22.427,29.68,22.151,30.208,22.077z M33.24,30.998
		c0.058-0.008,0.116-0.013,0.174-0.013c0.614,0,1.143,0.461,1.228,1.072c0.045,0.328-0.04,0.654-0.239,0.92
		c-0.2,0.265-0.491,0.436-0.819,0.481c-0.059,0.008-0.116,0.012-0.174,0.012l0,0c-0.616,0-1.144-0.46-1.229-1.069
		C32.085,31.721,32.561,31.093,33.24,30.998z M29.319,28.767c-0.094-0.678,0.382-1.308,1.06-1.403
		c0.059-0.008,0.116-0.012,0.174-0.012c0.615,0,1.143,0.461,1.229,1.071c0.095,0.679-0.38,1.308-1.059,1.402
		c-0.059,0.008-0.116,0.013-0.174,0.013C29.933,29.839,29.404,29.378,29.319,28.767z M5.506,14.447
		c0.19-1.358,1.463-2.347,2.855-2.155c0.526,0.074,1.007,0.308,1.393,0.676c0.126,0.121,0.307,0.166,0.475,0.119
		c0.169-0.047,0.299-0.18,0.345-0.349c0.328-1.228,1.524-2.045,2.814-1.866c1.107,0.155,1.976,0.998,2.163,2.099
		c0.039,0.235,0.24,0.406,0.478,0.412c0.099,0.002,0.199,0.008,0.298,0.022c0.603,0.084,1.156,0.385,1.557,0.849
		c0.109,0.124,0.271,0.188,0.436,0.166c0.164-0.02,0.306-0.121,0.38-0.269c0.477-0.951,1.525-1.52,2.608-1.371
		c0.57,0.08,1.063,0.352,1.439,0.733c-0.549,0.196-1.044,0.525-1.443,0.974c-0.625,0.703-0.939,1.605-0.884,2.543
		c0.015,0.258,0.06,0.507,0.127,0.747c-0.579-0.096-1.109-0.387-1.497-0.834c-0.108-0.125-0.27-0.188-0.435-0.167
		c-0.164,0.021-0.306,0.122-0.38,0.269c-0.479,0.952-1.528,1.52-2.608,1.371c-1.086-0.151-1.946-0.979-2.139-2.06
		c-0.042-0.233-0.243-0.404-0.481-0.407c-0.107-0.002-0.215-0.007-0.324-0.022c-0.533-0.075-1.022-0.313-1.415-0.689
		c-0.093-0.09-0.217-0.139-0.342-0.139c-0.044,0-0.089,0.006-0.132,0.019c-0.168,0.046-0.3,0.178-0.346,0.347
		c-0.328,1.211-1.508,2.017-2.787,1.841C6.281,17.109,5.314,15.828,5.506,14.447z M16.277,24.836
		c-1.09-0.151-1.853-1.163-1.701-2.254c0.137-0.982,0.986-1.723,1.975-1.723c0.092,0,0.185,0.006,0.279,0.019
		c0.529,0.075,0.997,0.351,1.319,0.775c0.321,0.427,0.458,0.953,0.384,1.481C18.383,24.207,17.378,24.99,16.277,24.836z
		 M12.349,34.164c0.058-0.416,0.417-0.729,0.836-0.729c0.039,0,0.078,0.003,0.118,0.008c0.224,0.031,0.423,0.147,0.559,0.328
		c0.137,0.181,0.194,0.404,0.163,0.627c-0.064,0.455-0.494,0.782-0.956,0.721C12.608,35.053,12.284,34.625,12.349,34.164z
		 M13.499,19.863c-0.103,0.736-0.791,1.271-1.545,1.167c-0.362-0.051-0.683-0.24-0.903-0.531c-0.22-0.292-0.314-0.652-0.263-1.014
		c0.094-0.673,0.676-1.18,1.353-1.18c0.063,0,0.127,0.004,0.192,0.013c0.362,0.05,0.683,0.238,0.903,0.531
		C13.456,19.141,13.549,19.501,13.499,19.863z M12.765,26.803c0.085-0.61,0.613-1.07,1.228-1.07c0.058,0,0.115,0.003,0.174,0.011
		c0.679,0.095,1.154,0.725,1.059,1.403c-0.093,0.667-0.722,1.153-1.403,1.059C13.145,28.11,12.671,27.481,12.765,26.803z
		 M10.713,31.126c0.085-0.609,0.612-1.07,1.227-1.07c0.058,0,0.116,0.004,0.174,0.013c0.679,0.095,1.154,0.724,1.06,1.402
		c-0.093,0.667-0.716,1.154-1.404,1.058c-0.328-0.045-0.619-0.216-0.819-0.481C10.751,31.782,10.666,31.456,10.713,31.126z
		 M3.834,30.104c-0.781-0.109-1.327-0.833-1.218-1.613l1.103-7.894c0.098-0.702,0.705-1.231,1.412-1.231
		c0.066,0,0.133,0.005,0.201,0.014l1.597,0.223L5.822,30.381L3.834,30.104z M21.408,16.971c-0.04-0.674,0.187-1.323,0.635-1.828
		c0.449-0.505,1.068-0.805,1.743-0.843c0.049-0.003,0.099-0.005,0.147-0.005c0.478,0,0.944,0.137,1.351,0.396
		c0.147,0.094,0.334,0.102,0.489,0.023c0.156-0.08,0.259-0.235,0.27-0.41c0.082-1.282,1.112-2.306,2.396-2.38
		c1.106-0.071,2.138,0.608,2.531,1.636c0.085,0.223,0.314,0.354,0.549,0.311c0.097-0.017,0.196-0.031,0.296-0.038
		c0.612-0.034,1.205,0.15,1.694,0.528c0.13,0.1,0.302,0.128,0.459,0.078c0.156-0.052,0.276-0.179,0.319-0.338
		c0.288-1.045,1.208-1.792,2.29-1.854c1.396-0.085,2.591,0.993,2.672,2.378c0.081,1.392-0.985,2.591-2.378,2.672
		c-0.623,0.038-1.205-0.149-1.693-0.527c-0.13-0.101-0.303-0.131-0.459-0.079c-0.155,0.053-0.275,0.179-0.32,0.338
		c-0.288,1.047-1.209,1.792-2.291,1.854c-1.094,0.066-2.104-0.594-2.5-1.602c-0.087-0.22-0.316-0.347-0.551-0.305
		c-0.104,0.019-0.212,0.036-0.322,0.042c-0.546,0.031-1.066-0.109-1.522-0.4c-0.146-0.094-0.333-0.103-0.488-0.024
		c-0.156,0.078-0.259,0.234-0.271,0.408c-0.086,1.266-1.105,2.276-2.372,2.349C22.667,19.434,21.488,18.357,21.408,16.971z
		 M41.52,30.622l-1.987,0.276l-1.107-10.777l1.598-0.223c0.066-0.009,0.135-0.014,0.2-0.014c0.707,0,1.314,0.529,1.412,1.232
		l1.104,7.893C42.846,29.789,42.3,30.512,41.52,30.622z"/>
	<path fill="#7FA9C2" d="M20.669,9.424c0.074,0.199,0.263,0.324,0.464,0.324c0.057,0,0.115-0.01,0.172-0.031
		c0.256-0.095,0.387-0.379,0.292-0.636l-1.236-3.338c-0.095-0.256-0.38-0.386-0.636-0.292c-0.256,0.095-0.387,0.38-0.292,0.636
		L20.669,9.424z"/>
	<path fill="#7FA9C2" d="M23.239,10.524c0.056,0.02,0.115,0.03,0.172,0.03c0.201,0,0.39-0.124,0.464-0.323l1.236-3.338
		c0.095-0.256-0.037-0.541-0.292-0.635c-0.258-0.095-0.54,0.036-0.636,0.292l-1.236,3.338
		C22.851,10.144,22.982,10.429,23.239,10.524z"/>
	<path fill="#7FA9C2" d="M19.286,11.129c0.098,0.113,0.236,0.171,0.374,0.171c0.115,0,0.23-0.04,0.324-0.121
		c0.207-0.179,0.229-0.491,0.05-0.697l-1.039-1.199c-0.179-0.206-0.492-0.229-0.697-0.049c-0.207,0.179-0.229,0.491-0.05,0.697
		L19.286,11.129z"/>
</g>
</svg>
