<?xml version="1.0" encoding="utf-8"?>
<!-- Generator: Adobe Illustrator 16.0.0, SVG Export Plug-In . SVG Version: 6.00 Build 0)  -->
<!DOCTYPE svg PUBLIC "-//W3C//DTD SVG 1.1//EN" "http://www.w3.org/Graphics/SVG/1.1/DTD/svg11.dtd">
<svg version="1.1" id="圖層_1" xmlns="http://www.w3.org/2000/svg" xmlns:xlink="http://www.w3.org/1999/xlink" x="0px" y="0px"
	 width="45.354px" height="45.404px" viewBox="0 0 45.354 45.404" enable-background="new 0 0 45.354 45.404" xml:space="preserve">
<g>
	<path fill="#7FA9C2" d="M38.592,0.438H20.137c-1.42,0-2.569,1.15-2.569,2.569v16.669h-2.115c-3.158,0-5.748,2.457-5.973,5.558
		l-7.708,7.709c-0.391,0.391-0.391,1.023,0,1.414c0.364,0.364,0.931,0.374,1.323,0.061c0.029-0.023,0.064-0.034,0.091-0.061
		l7.977-7.977c0.001-0.001,0.002-0.001,0.002-0.002c0.181-0.181,0.293-0.431,0.293-0.707c0-2.203,1.792-3.996,3.995-3.996h10.381
		c0.826,0,1.498,0.671,1.498,1.497c0,0.827-0.672,1.499-1.498,1.499h-5.386c-0.552,0-1,0.447-1,1c0,2.203-1.792,3.995-3.995,3.995
		c-0.276,0-0.526,0.112-0.707,0.293c-0.181,0.181-0.293,0.431-0.293,0.707c0,0.553,0.448,1,1,1c0.744,0,1.457-0.137,2.115-0.386
		v4.199l-7.552,7.553l-0.077,0.077c-0.391,0.391-0.391,1.023,0,1.414c0.195,0.195,0.451,0.293,0.707,0.293s0.512-0.098,0.707-0.293
		l6.215-6.216v4.085c0,1.42,1.149,2.57,2.569,2.57h18.455c1.419,0,2.569-1.15,2.569-2.57V3.008
		C41.161,1.589,40.011,0.438,38.592,0.438z M39.238,41.394c0,0.828-0.672,1.5-1.5,1.5h-2.746c-0.797,0-1.448-0.621-1.497-1.406
		h-8.26c-0.049,0.785-0.7,1.406-1.497,1.406h-2.746c-0.829,0-1.5-0.672-1.5-1.5V30.08c0.962-0.883,1.646-2.065,1.873-3.407h1.127
		h3.342c0.01,0,0.019-0.003,0.027-0.003c0.545,0.825,1.478,1.37,2.539,1.37c1.682,0,3.043-1.361,3.043-3.043
		c0-1.427-0.986-2.617-2.313-2.946c-0.37-1.081-1.247-1.916-2.354-2.229c0.02-0.126,0.039-0.253,0.039-0.385
		c0-0.372-0.086-0.722-0.23-1.04l1.177-0.978c0.976,0.92,2.286,1.488,3.733,1.488c2.036,0,3.809-1.12,4.742-2.776
		c0.444-0.789,0.701-1.697,0.701-2.667s-0.257-1.879-0.701-2.667C35.304,9.14,33.531,8.02,31.495,8.02
		c-3.008,0-5.443,2.438-5.443,5.444c0,1.086,0.321,2.095,0.869,2.944l-1.176,0.977c-0.409-0.288-0.905-0.46-1.443-0.46
		c-0.713,0-1.354,0.3-1.811,0.778c-0.432,0.451-0.701,1.061-0.701,1.735c0,0.082,0.017,0.159,0.024,0.239h-2.323V4.009
		c0-0.829,0.671-1.5,1.5-1.5h2.746c0.798,0,1.45,0.623,1.497,1.408h8.26c0.047-0.786,0.699-1.408,1.497-1.408h2.746
		c0.828,0,1.5,0.671,1.5,1.5V41.394z"/>
	<path fill="#7FA9C2" d="M36.238,33.11c-0.026-0.003-0.049-0.016-0.075-0.016H22.567c-0.027,0-0.049,0.013-0.075,0.016
		c-0.515,0.04-0.925,0.458-0.925,0.984s0.41,0.944,0.925,0.984c0.026,0.003,0.048,0.016,0.075,0.016h13.596
		c0.026,0,0.049-0.013,0.075-0.016c0.516-0.04,0.925-0.458,0.925-0.984S36.753,33.15,36.238,33.11z"/>
	<path fill="#7FA9C2" d="M36.238,36.344c-0.026-0.003-0.049-0.016-0.075-0.016H22.567c-0.027,0-0.049,0.013-0.075,0.016
		c-0.515,0.04-0.925,0.458-0.925,0.984s0.41,0.944,0.925,0.984c0.026,0.003,0.048,0.016,0.075,0.016h13.596
		c0.026,0,0.049-0.013,0.075-0.016c0.516-0.04,0.925-0.458,0.925-0.984S36.753,36.385,36.238,36.344z"/>
</g>
</svg>
