<?xml version="1.0" encoding="utf-8"?>
<!-- Generator: Adobe Illustrator 16.0.0, SVG Export Plug-In . SVG Version: 6.00 Build 0)  -->
<!DOCTYPE svg PUBLIC "-//W3C//DTD SVG 1.1//EN" "http://www.w3.org/Graphics/SVG/1.1/DTD/svg11.dtd">
<svg version="1.1" id="圖層_1" xmlns="http://www.w3.org/2000/svg" xmlns:xlink="http://www.w3.org/1999/xlink" x="0px" y="0px"
	 width="45.354px" height="45.404px" viewBox="0 0 45.354 45.404" enable-background="new 0 0 45.354 45.404" xml:space="preserve">
<g>
	<path fill="#FFFFFF" d="M26.228,18.304c-0.853-1.093-2.165-1.726-3.551-1.726c-1.385,0-2.694,0.633-3.55,1.726L5.612,35.496
		c-1.069,1.361-1.265,3.215-0.509,4.77c0.753,1.555,2.33,2.541,4.059,2.541h27.029c0.011,0,0.024,0,0.031,0
		c2.495,0,4.52-2.023,4.52-4.516c0-1.225-0.491-2.34-1.285-3.156L26.228,18.304z"/>
	<path fill="#FFFFFF" d="M9.162,13.135h27.029c2.911,0,5.27-2.361,5.27-5.269c0-2.911-2.358-5.269-5.27-5.269H9.162
		c-2.907,0-5.269,2.358-5.269,5.269C3.894,10.773,6.255,13.135,9.162,13.135z"/>
</g>
</svg>
