<?xml version="1.0" encoding="utf-8"?>
<!-- Generator: Adobe Illustrator 16.0.0, SVG Export Plug-In . SVG Version: 6.00 Build 0)  -->
<!DOCTYPE svg PUBLIC "-//W3C//DTD SVG 1.1//EN" "http://www.w3.org/Graphics/SVG/1.1/DTD/svg11.dtd">
<svg version="1.1" id="圖層_1" xmlns="http://www.w3.org/2000/svg" xmlns:xlink="http://www.w3.org/1999/xlink" x="0px" y="0px"
	 width="45.354px" height="45.404px" viewBox="0 0 45.354 45.404" enable-background="new 0 0 45.354 45.404" xml:space="preserve">
<path fill="#372F2D" d="M22.677,0.024C10.154,0.024,0,10.178,0,22.704c0,12.522,10.152,22.677,22.677,22.677
	c12.522,0,22.677-10.152,22.677-22.677C45.354,10.178,35.199,0.024,22.677,0.024z"/>
<path fill="#FFFFFF" d="M29.779,11.416c-4.125,0-6.257,3.384-7.102,5.722c-0.845-2.338-2.976-5.722-7.102-5.722
	c-4.558,0-7.407,3.959-7.407,8.841c0,7.59,9.217,14.057,14.509,16.398c5.293-2.342,14.51-8.809,14.51-16.398
	C37.187,15.375,34.335,11.416,29.779,11.416z"/>
</svg>
