<?xml version="1.0" encoding="utf-8"?>
<!-- Generator: Adobe Illustrator 16.0.0, SVG Export Plug-In . SVG Version: 6.00 Build 0)  -->
<!DOCTYPE svg PUBLIC "-//W3C//DTD SVG 1.1//EN" "http://www.w3.org/Graphics/SVG/1.1/DTD/svg11.dtd">
<svg version="1.1" id="圖層_1" xmlns="http://www.w3.org/2000/svg" xmlns:xlink="http://www.w3.org/1999/xlink" x="0px" y="0px"
	 width="45.354px" height="45.404px" viewBox="0 0 45.354 45.404" enable-background="new 0 0 45.354 45.404" xml:space="preserve">
<g>
	<circle fill="#CFD0D0" cx="22.677" cy="22.702" r="22.702"/>
	<path fill="#FFFFFF" d="M35.595,17.325L25.266,6.996c-1.383-1.383-3.795-1.383-5.178,0L9.759,17.325
		c-0.692,0.691-1.073,1.611-1.073,2.59v11.9c0,0.978,0.381,1.897,1.073,2.59c0.691,0.691,1.61,1.072,2.589,1.072h20.658
		c0.979,0,1.897-0.381,2.59-1.073c0.69-0.692,1.071-1.611,1.071-2.589v-11.9C36.667,18.937,36.286,18.017,35.595,17.325z
		 M34.667,19.915v11.9c0,0.076-0.012,0.151-0.022,0.226l-6.176-6.176l6.176-6.176C34.656,19.763,34.667,19.838,34.667,19.915z
		 M21.502,8.41c0.313-0.313,0.73-0.486,1.175-0.486s0.861,0.173,1.175,0.486l9.622,9.622l-6.419,6.419l-1.789-1.789
		c-1.428-1.428-3.75-1.428-5.178,0l-1.789,1.789l-6.419-6.419L21.502,8.41z M10.708,32.042c-0.011-0.075-0.022-0.149-0.022-0.227
		v-11.9c0-0.077,0.012-0.151,0.022-0.227l6.177,6.177L10.708,32.042z M12.348,33.477c-0.076,0-0.15-0.012-0.225-0.022l9.379-9.379
		c0.627-0.627,1.723-0.627,2.35,0l9.379,9.379c-0.074,0.011-0.148,0.022-0.225,0.022H12.348z"/>
</g>
</svg>
