<?xml version="1.0" encoding="utf-8"?>
<!-- Generator: Adobe Illustrator 16.0.0, SVG Export Plug-In . SVG Version: 6.00 Build 0)  -->
<!DOCTYPE svg PUBLIC "-//W3C//DTD SVG 1.1//EN" "http://www.w3.org/Graphics/SVG/1.1/DTD/svg11.dtd">
<svg version="1.1" id="圖層_1" xmlns="http://www.w3.org/2000/svg" xmlns:xlink="http://www.w3.org/1999/xlink" x="0px" y="0px"
	 width="45.354px" height="45.404px" viewBox="0 0 45.354 45.404" enable-background="new 0 0 45.354 45.404" xml:space="preserve">
<path fill="#FFFFFF" d="M35.191,2.275H10.163c-4.365,0-7.912,3.547-7.912,7.914v6.405v3.863v14.759c0,4.361,3.547,7.912,7.912,7.912
	h12.418V26.177h-3.64v-5.544h3.64c0,0,0-1.983,0-4.216c0-3.534,1.595-6.905,6.513-6.905c3.197,0,6.641,0,6.641,0v5.759h-3.262
	c-0.88,0-1.52,0.183-1.921,0.55c-0.292,0.275-0.44,0.842-0.44,1.703l-0.027,3.109h5.826l-0.667,5.544h-5.159v16.952h5.107
	c4.361,0,7.912-3.551,7.912-7.912V20.458v-3.863v-6.405C43.104,5.822,39.553,2.275,35.191,2.275z"/>
</svg>
