<?xml version="1.0" encoding="utf-8"?>
<!-- Generator: Adobe Illustrator 16.0.0, SVG Export Plug-In . SVG Version: 6.00 Build 0)  -->
<!DOCTYPE svg PUBLIC "-//W3C//DTD SVG 1.1//EN" "http://www.w3.org/Graphics/SVG/1.1/DTD/svg11.dtd">
<svg version="1.1" id="圖層_1" xmlns="http://www.w3.org/2000/svg" xmlns:xlink="http://www.w3.org/1999/xlink" x="0px" y="0px"
	 width="45.354px" height="45.404px" viewBox="0 0 45.354 45.404" enable-background="new 0 0 45.354 45.404" xml:space="preserve">
<path fill="#372F2D" d="M22.677,0.024C10.154,0.024,0,10.178,0,22.704c0,12.522,10.153,22.677,22.677,22.677
	c12.522,0,22.677-10.153,22.677-22.677C45.354,10.178,35.199,0.024,22.677,0.024z"/>
<path fill="#FFFFFF" d="M15.18,28.057l-5.48-5.478c-0.693-0.691,1.301-3.795,1.989-4.49l5.414-5.417
	c0.688-0.688,3.716-2.593,4.402-1.899l5.486,5.479c0.688,0.686-1.22,3.708-1.913,4.398l-5.415,5.417
	C18.971,26.757,15.868,28.747,15.18,28.057z"/>
<path fill="#FFFFFF" d="M32.004,36.637c0,0-7.506-7.817-10.486-11.323l2.521-2.531c3.512,2.984,11.333,10.49,11.333,10.49
	L32.004,36.637z"/>
</svg>
