<?xml version="1.0" encoding="utf-8"?>
<!-- Generator: Adobe Illustrator 16.0.0, SVG Export Plug-In . SVG Version: 6.00 Build 0)  -->
<!DOCTYPE svg PUBLIC "-//W3C//DTD SVG 1.1//EN" "http://www.w3.org/Graphics/SVG/1.1/DTD/svg11.dtd">
<svg version="1.1" id="圖層_1" xmlns="http://www.w3.org/2000/svg" xmlns:xlink="http://www.w3.org/1999/xlink" x="0px" y="0px"
	 width="45.354px" height="45.404px" viewBox="0 0 45.354 45.404" enable-background="new 0 0 45.354 45.404" xml:space="preserve">
<g>
	<path fill="#7FA9C2" d="M38.923,43.59h-8.186c-1.56,0-2.828-1.269-2.828-2.828c0-0.553,0.447-1,1-1s1,0.447,1,1
		c0,0.457,0.371,0.828,0.828,0.828h8.186c0.457,0,0.828-0.371,0.828-0.828c0-0.553,0.447-1,1-1s1,0.447,1,1
		C41.751,42.321,40.483,43.59,38.923,43.59z"/>
	<polygon fill="#7FA9C2" points="40.687,34.311 34.83,28.454 28.974,34.311 31.682,34.311 31.682,40.101 37.979,40.101 
		37.979,34.311 	"/>
</g>
<path fill="#7FA9C2" d="M25.594,43.59H6.344c-0.552,0-1-0.447-1-1V4.285c0-0.552,0.448-1,1-1h30.75c0.553,0,1,0.448,1,1v22.392
	c0,0.553-0.447,1-1,1s-1-0.447-1-1V5.285H7.344V41.59h18.25c0.553,0,1,0.447,1,1S26.147,43.59,25.594,43.59z"/>
<rect x="11.783" y="2.119" fill="#7FA9C2" width="19.871" height="4.333"/>
<g>
	<circle fill="#7FA9C2" cx="24.144" cy="17.1" r="8.276"/>
	<circle fill="#7FA9C2" cx="13.21" cy="26.181" r="3.82"/>
	<circle fill="#7FA9C2" cx="19.439" cy="34.632" r="4.627"/>
	<path fill="#7FA9C2" d="M13.21,27.182c-0.287,0-0.572-0.123-0.77-0.361c-0.353-0.425-0.295-1.055,0.13-1.408l10.935-9.082
		c0.425-0.354,1.055-0.294,1.408,0.13c0.353,0.425,0.294,1.056-0.131,1.408l-10.934,9.083C13.661,27.107,13.435,27.182,13.21,27.182
		z"/>
	<path fill="#7FA9C2" d="M19.441,35.632c-0.307,0-0.61-0.141-0.806-0.406l-6.23-8.449c-0.328-0.444-0.233-1.071,0.211-1.398
		c0.443-0.329,1.07-0.233,1.398,0.211l6.23,8.449c0.328,0.444,0.233,1.071-0.211,1.398C19.855,35.568,19.647,35.632,19.441,35.632z"
		/>
</g>
</svg>
