<?xml version="1.0" encoding="utf-8"?>
<!-- Generator: Adobe Illustrator 16.0.0, SVG Export Plug-In . SVG Version: 6.00 Build 0)  -->
<!DOCTYPE svg PUBLIC "-//W3C//DTD SVG 1.1//EN" "http://www.w3.org/Graphics/SVG/1.1/DTD/svg11.dtd">
<svg version="1.1" id="圖層_1" xmlns="http://www.w3.org/2000/svg" xmlns:xlink="http://www.w3.org/1999/xlink" x="0px" y="0px"
	 width="45.354px" height="45.404px" viewBox="0 0 45.354 45.404" enable-background="new 0 0 45.354 45.404" xml:space="preserve">
<g>
	<path fill="#FFFFFF" d="M22.677,0.025C10.153,0.025,0,10.177,0,22.702C0,35.225,10.153,45.38,22.677,45.38
		s22.678-10.154,22.678-22.678C45.355,10.177,35.201,0.025,22.677,0.025z M22.677,41.858c-10.579,0-19.155-8.578-19.155-19.156
		c0-10.579,8.576-19.155,19.155-19.155s19.154,8.576,19.154,19.155C41.831,33.28,33.256,41.858,22.677,41.858z"/>
	<rect x="20.089" y="33.276" fill="#FFFFFF" width="5.942" height="5.943"/>
	<path fill="#FFFFFF" d="M23.088,6.477c-2.819,0-5.137,0.784-6.889,2.33c-1.753,1.547-2.818,3.774-3.164,6.617l-0.124,1.016
		l5.512,0.656l0.152-0.971c0.268-1.702,0.81-2.945,1.612-3.695c0.788-0.737,1.756-1.096,2.958-1.096
		c1.246,0,2.264,0.401,3.116,1.227c0.842,0.815,1.25,1.724,1.25,2.779c0,0.561-0.131,1.061-0.398,1.531
		c-0.205,0.358-0.734,1.038-2.102,2.244c-1.236,1.092-2.079,1.909-2.575,2.501c-0.691,0.833-1.203,1.68-1.516,2.508
		c-0.425,1.092-0.641,2.387-0.641,3.854c0,0.234,0.007,0.586,0.02,1.055l0.027,0.992h5.287l0.019-1
		c0.029-1.598,0.152-2.363,0.25-2.723c0.133-0.49,0.329-0.91,0.601-1.281c0.206-0.283,0.727-0.863,2.042-2.027
		c1.766-1.564,2.932-2.879,3.564-4.019c0.654-1.176,0.984-2.477,0.984-3.864c0-2.395-0.931-4.46-2.768-6.139
		C28.493,7.317,26.066,6.477,23.088,6.477z"/>
</g>
</svg>
