<?xml version="1.0" encoding="utf-8"?>
<!-- Generator: Adobe Illustrator 16.0.0, SVG Export Plug-In . SVG Version: 6.00 Build 0)  -->
<!DOCTYPE svg PUBLIC "-//W3C//DTD SVG 1.1//EN" "http://www.w3.org/Graphics/SVG/1.1/DTD/svg11.dtd">
<svg version="1.1" id="圖層_1" xmlns="http://www.w3.org/2000/svg" xmlns:xlink="http://www.w3.org/1999/xlink" x="0px" y="0px"
	 width="45.354px" height="45.404px" viewBox="0 0 45.354 45.404" enable-background="new 0 0 45.354 45.404" xml:space="preserve">
<path fill="#C9CACA" d="M32.737,4.468c-2.921-0.017-5.571,0.615-7.564,2.351c0,0.003,0,0.003,0,0.003
	c-1.653,1.371-1.904,2.148-2.496,2.148c-0.591,0-0.838-0.777-2.488-2.148c0,0-0.003,0-0.003-0.003
	c-1.997-1.736-4.644-2.368-7.568-2.351C6.434,4.496,1.48,8.967,1.48,16.491c0,12.746,16.835,20.884,21.196,24.449
	c4.365-3.564,21.196-11.703,21.196-24.449C43.873,8.967,38.921,4.496,32.737,4.468z"/>
</svg>
