<?xml version="1.0" encoding="utf-8"?>
<!-- Generator: Adobe Illustrator 16.0.0, SVG Export Plug-In . SVG Version: 6.00 Build 0)  -->
<!DOCTYPE svg PUBLIC "-//W3C//DTD SVG 1.1//EN" "http://www.w3.org/Graphics/SVG/1.1/DTD/svg11.dtd">
<svg version="1.1" id="圖層_1" xmlns="http://www.w3.org/2000/svg" xmlns:xlink="http://www.w3.org/1999/xlink" x="0px" y="0px"
	 width="45.354px" height="45.404px" viewBox="0 0 45.354 45.404" enable-background="new 0 0 45.354 45.404" xml:space="preserve">
<path fill="#FFFFFF" d="M39.532,38.143l-6.235-6.235c2.145-2.471,3.453-5.686,3.453-9.206c0-7.759-6.313-14.072-14.073-14.072
	c-7.759,0-14.072,6.313-14.072,14.072c0,7.76,6.313,14.073,14.072,14.073c3.521,0,6.735-1.309,9.206-3.453l6.235,6.235
	c0.195,0.195,0.451,0.293,0.707,0.293s0.512-0.098,0.707-0.293C39.923,39.167,39.923,38.534,39.532,38.143z M22.677,33.758
	c-6.096,0-11.055-4.96-11.055-11.056s4.959-11.055,11.055-11.055s11.056,4.959,11.056,11.055S28.773,33.758,22.677,33.758z"/>
</svg>
