<?xml version="1.0" encoding="utf-8"?>
<!-- Generator: Adobe Illustrator 16.0.0, SVG Export Plug-In . SVG Version: 6.00 Build 0)  -->
<!DOCTYPE svg PUBLIC "-//W3C//DTD SVG 1.1//EN" "http://www.w3.org/Graphics/SVG/1.1/DTD/svg11.dtd">
<svg version="1.1" id="圖層_1" xmlns="http://www.w3.org/2000/svg" xmlns:xlink="http://www.w3.org/1999/xlink" x="0px" y="0px"
	 width="45.354px" height="45.404px" viewBox="0 0 45.354 45.404" enable-background="new 0 0 45.354 45.404" xml:space="preserve">
<g>
	<path fill="#FFFFFF" d="M38.085,6.551V5.372c0-2.652-2.157-4.813-4.812-4.813c-2.655,0-4.813,2.16-4.813,4.813v1.075H16.891V5.372
		c0-2.652-2.157-4.813-4.813-4.813c-2.653,0-4.813,2.16-4.813,4.813v1.179C3.184,7.06,0,10.516,0,14.736v1.468v2.67v17.683
		c0,4.571,3.72,8.288,8.291,8.288h28.771c4.572,0,8.292-3.717,8.292-8.288V18.874v-2.67v-1.468
		C45.354,10.516,42.172,7.06,38.085,6.551z M31.13,5.372c0-1.18,0.962-2.143,2.144-2.143c1.181,0,2.142,0.963,2.142,2.143v6.956
		c0,1.181-0.961,2.144-2.142,2.144c-1.182,0-2.144-0.963-2.144-2.144V5.372z M9.938,5.372c0-1.18,0.96-2.143,2.141-2.143
		c1.183,0,2.143,0.963,2.143,2.143v6.956c0,1.181-0.96,2.144-2.143,2.144c-1.181,0-2.141-0.963-2.141-2.144V5.372z M42.683,36.556
		c0,3.103-2.521,5.62-5.621,5.62H8.291c-3.099,0-5.621-2.518-5.621-5.62V18.874h40.013V36.556z"/>
	<path fill="#FFFFFF" d="M16.47,36.907c-0.624,0-1.158-0.21-1.598-0.636c-0.439-0.427-0.709-1.038-0.811-1.842l-3.148,0.383
		c0.161,1.427,0.749,2.585,1.759,3.467c1.012,0.886,2.285,1.327,3.821,1.327c1.623,0,2.979-0.526,4.066-1.574
		c1.088-1.051,1.633-2.319,1.633-3.812c0-1.025-0.293-1.903-0.876-2.629c-0.582-0.725-1.358-1.192-2.333-1.4
		c1.631-0.887,2.445-2.077,2.445-3.565c0-1.051-0.396-1.992-1.193-2.826c-0.965-1.02-2.247-1.529-3.845-1.529
		c-0.934,0-1.776,0.176-2.53,0.529c-0.751,0.351-1.339,0.832-1.759,1.445c-0.422,0.614-0.735,1.436-0.944,2.461l2.999,0.51
		c0.085-0.742,0.322-1.304,0.716-1.689c0.396-0.387,0.87-0.582,1.424-0.582c0.564,0,1.018,0.171,1.355,0.512
		c0.339,0.34,0.511,0.795,0.511,1.366c0,0.671-0.233,1.209-0.698,1.614c-0.461,0.406-1.132,0.598-2.013,0.574l-0.358,2.652
		c0.579-0.163,1.077-0.243,1.494-0.243c0.63,0,1.169,0.239,1.607,0.717c0.44,0.479,0.661,1.127,0.661,1.947
		c0,0.863-0.23,1.551-0.69,2.06C17.707,36.654,17.143,36.907,16.47,36.907z"/>
	<path fill="#FFFFFF" d="M29.289,39.317h3.253V22.27h-2.639c-0.372,1.036-1.055,1.939-2.051,2.717
		c-0.995,0.775-1.917,1.302-2.768,1.582v2.951c1.616-0.534,3.014-1.356,4.204-2.468V39.317z"/>
</g>
</svg>
