<?xml version="1.0" encoding="utf-8"?>
<!-- Generator: Adobe Illustrator 16.0.0, SVG Export Plug-In . SVG Version: 6.00 Build 0)  -->
<!DOCTYPE svg PUBLIC "-//W3C//DTD SVG 1.1//EN" "http://www.w3.org/Graphics/SVG/1.1/DTD/svg11.dtd">
<svg version="1.1" id="圖層_1" xmlns="http://www.w3.org/2000/svg" xmlns:xlink="http://www.w3.org/1999/xlink" x="0px" y="0px"
	 width="45.354px" height="45.404px" viewBox="0 0 45.354 45.404" enable-background="new 0 0 45.354 45.404" xml:space="preserve">
<path fill="#FFFFFF" d="M31.289,11.853c-3.106,0-5.9,1.311-7.879,3.401l-5.813-3.491c0.109-0.5,0.17-1.018,0.17-1.55
	c0-4.021-3.259-7.276-7.276-7.276c-4.019,0-7.276,3.255-7.276,7.276c0,4.015,3.258,7.272,7.276,7.272
	c1.794,0,3.435-0.653,4.703-1.729l5.813,3.492c-0.364,1.086-0.57,2.246-0.57,3.456c0,1.209,0.206,2.367,0.571,3.453l-5.813,3.489
	c-1.27-1.076-2.909-1.728-4.704-1.728c-4.019,0-7.276,3.252-7.276,7.274c0,4.018,3.258,7.275,7.276,7.275
	c4.018,0,7.276-3.258,7.276-7.275c0-0.533-0.061-1.051-0.169-1.551l5.813-3.49c1.978,2.09,4.771,3.4,7.877,3.4
	c5.994,0,10.851-4.855,10.851-10.847C42.14,16.706,37.283,11.853,31.289,11.853z"/>
</svg>
