<?xml version="1.0" encoding="utf-8"?>
<!-- Generator: Adobe Illustrator 16.0.0, SVG Export Plug-In . SVG Version: 6.00 Build 0)  -->
<!DOCTYPE svg PUBLIC "-//W3C//DTD SVG 1.1//EN" "http://www.w3.org/Graphics/SVG/1.1/DTD/svg11.dtd">
<svg version="1.1" id="圖層_1" xmlns="http://www.w3.org/2000/svg" xmlns:xlink="http://www.w3.org/1999/xlink" x="0px" y="0px"
	 width="45.354px" height="45.404px" viewBox="0 0 45.354 45.404" enable-background="new 0 0 45.354 45.404" xml:space="preserve">
<g>
	<path fill="#7FA9C2" d="M14.27,28.052c-1.019-0.965-2.216-1.67-3.532-2.014c1.668-0.723,2.836-2.379,2.836-4.315
		c0-2.596-2.106-4.701-4.702-4.701c-2.596,0-4.701,2.105-4.701,4.701c0,1.936,1.168,3.592,2.836,4.315
		c-2.747,0.717-5.007,2.98-6.107,5.988c2.447,1.246,5.14,1.941,7.972,1.941c0.203,0,0.398-0.029,0.6-0.039
		C10.684,31.561,12.325,29.552,14.27,28.052z"/>
	<path fill="#7FA9C2" d="M36.15,33.93c0.199,0.008,0.396,0.037,0.599,0.037c2.831,0,5.527-0.693,7.974-1.941
		c-1.1-3.008-3.361-5.271-6.106-5.988c1.667-0.723,2.836-2.379,2.836-4.315c0-2.596-2.106-4.701-4.703-4.701
		s-4.701,2.105-4.701,4.701c0,1.936,1.17,3.592,2.838,4.315c-1.315,0.344-2.514,1.049-3.533,2.014
		C33.297,29.553,34.939,31.561,36.15,33.93z"/>
	<path fill="#7FA9C2" d="M25.836,26.897c2.705-1.172,4.6-3.862,4.6-6.997c0-4.21-3.415-7.624-7.626-7.624
		c-4.209,0-7.623,3.413-7.623,7.624c0,3.135,1.895,5.825,4.6,6.997c-4.453,1.162-8.12,4.832-9.904,9.707
		c3.968,2.025,8.337,3.148,12.927,3.148c4.592,0,8.963-1.123,12.929-3.148C33.955,31.729,30.29,28.059,25.836,26.897z"/>
	<path fill="#7FA9C2" d="M22.615,9.985c-0.405,0-0.732-0.328-0.732-0.733v-2.87c0-0.405,0.327-0.732,0.732-0.732
		c0.405,0,0.732,0.327,0.732,0.732v2.87C23.347,9.657,23.019,9.985,22.615,9.985z"/>
	<path fill="#7FA9C2" d="M18.248,11.004c-0.279,0-0.546-0.16-0.668-0.43l-1.182-2.615C16.23,7.59,16.395,7.156,16.763,6.99
		c0.371-0.167,0.802-0.002,0.97,0.366l1.182,2.614c0.167,0.369,0.002,0.803-0.366,0.97C18.451,10.984,18.348,11.004,18.248,11.004z"
		/>
	<path fill="#7FA9C2" d="M14.685,13.732c-0.172,0-0.344-0.06-0.484-0.184l-2.152-1.896c-0.303-0.268-0.332-0.73-0.064-1.034
		c0.268-0.305,0.731-0.332,1.034-0.065l2.152,1.896c0.304,0.267,0.333,0.73,0.065,1.034C15.09,13.649,14.888,13.732,14.685,13.732z"
		/>
	<path fill="#7FA9C2" d="M26.982,11.004c-0.102,0-0.203-0.02-0.301-0.064c-0.37-0.167-0.534-0.601-0.367-0.97l1.182-2.614
		c0.17-0.369,0.602-0.533,0.971-0.366c0.369,0.167,0.533,0.6,0.366,0.969l-1.182,2.615C27.528,10.844,27.261,11.004,26.982,11.004z"
		/>
	<path fill="#7FA9C2" d="M30.543,13.732c-0.202,0-0.403-0.083-0.55-0.248c-0.267-0.304-0.238-0.768,0.067-1.034l2.151-1.896
		c0.303-0.269,0.768-0.239,1.033,0.065c0.269,0.304,0.238,0.767-0.065,1.034l-2.152,1.896
		C30.889,13.672,30.715,13.732,30.543,13.732z"/>
</g>
</svg>
