<?xml version="1.0" encoding="utf-8"?>
<!-- Generator: Adobe Illustrator 16.0.0, SVG Export Plug-In . SVG Version: 6.00 Build 0)  -->
<!DOCTYPE svg PUBLIC "-//W3C//DTD SVG 1.1//EN" "http://www.w3.org/Graphics/SVG/1.1/DTD/svg11.dtd">
<svg version="1.1" id="圖層_1" xmlns="http://www.w3.org/2000/svg" xmlns:xlink="http://www.w3.org/1999/xlink" x="0px" y="0px"
	 width="45.354px" height="45.404px" viewBox="0 0 45.354 45.404" enable-background="new 0 0 45.354 45.404" xml:space="preserve">
<path fill="#FFFFFF" d="M35.191,2.275H10.159c-4.361,0-7.908,3.55-7.908,7.912v6.407v3.863v14.761c0,4.363,3.547,7.91,7.908,7.91
	h25.032c4.361,0,7.912-3.547,7.912-7.91V20.458v-3.863v-6.407C43.104,5.826,39.553,2.275,35.191,2.275z M22.801,15.412
	c3.877,0,7.029,3.155,7.029,7.029c0,3.877-3.152,7.03-7.029,7.03c-3.873,0-7.025-3.153-7.025-7.03
	C15.775,18.567,18.928,15.412,22.801,15.412z M38.735,15.309h-6.974V8.332h6.974V15.309z M39.24,35.219
	c0,2.232-1.814,4.049-4.049,4.049H10.159c-2.23,0-4.045-1.816-4.045-4.049V20.458h5.98c-0.121,0.646-0.186,1.306-0.186,1.986
	c0,6.005,4.887,10.892,10.892,10.892s10.893-4.887,10.893-10.892c0-0.681-0.065-1.34-0.186-1.986h5.732V35.219z"/>
</svg>
