<?xml version="1.0" encoding="utf-8"?>
<!-- Generator: Adobe Illustrator 16.0.0, SVG Export Plug-In . SVG Version: 6.00 Build 0)  -->
<!DOCTYPE svg PUBLIC "-//W3C//DTD SVG 1.1//EN" "http://www.w3.org/Graphics/SVG/1.1/DTD/svg11.dtd">
<svg version="1.1" id="圖層_1" xmlns="http://www.w3.org/2000/svg" xmlns:xlink="http://www.w3.org/1999/xlink" x="0px" y="0px"
	 width="45.354px" height="45.404px" viewBox="0 0 45.354 45.404" enable-background="new 0 0 45.354 45.404" xml:space="preserve">
<g>
	<circle fill="#CC525E" cx="22.677" cy="22.702" r="22.702"/>
	<path fill="#FFFFFF" d="M35.595,14.163c-0.69-0.692-1.61-1.073-2.589-1.073H12.348c-0.978,0-1.897,0.381-2.589,1.073
		s-1.073,1.611-1.073,2.589v11.901c0,0.978,0.381,1.897,1.073,2.59c0.692,0.691,1.611,1.072,2.589,1.072h20.658
		c0.979,0,1.897-0.381,2.589-1.072s1.072-1.611,1.072-2.59V16.752C36.667,15.773,36.286,14.853,35.595,14.163z M34.667,16.752
		v11.901c0,0.077-0.012,0.151-0.022,0.226l-6.175-6.176l6.175-6.177C34.656,16.601,34.667,16.675,34.667,16.752z M33.006,15.09
		c0.077,0,0.151,0.012,0.226,0.022l-9.379,9.38c-0.629,0.629-1.723,0.629-2.351,0l-9.38-9.38c0.075-0.01,0.149-0.022,0.226-0.022
		H33.006z M10.708,28.88c-0.01-0.075-0.022-0.149-0.022-0.227V16.752c0-0.077,0.012-0.151,0.022-0.226l6.177,6.177L10.708,28.88z
		 M12.348,30.315c-0.077,0-0.151-0.012-0.226-0.022l6.176-6.176l1.789,1.789c0.692,0.692,1.612,1.073,2.59,1.073
		c0.979,0,1.898-0.381,2.59-1.073l1.789-1.789l6.176,6.177c-0.075,0.01-0.149,0.021-0.226,0.021H12.348z"/>
</g>
</svg>
