<?xml version="1.0" encoding="utf-8"?>
<!-- Generator: Adobe Illustrator 16.0.0, SVG Export Plug-In . SVG Version: 6.00 Build 0)  -->
<!DOCTYPE svg PUBLIC "-//W3C//DTD SVG 1.1//EN" "http://www.w3.org/Graphics/SVG/1.1/DTD/svg11.dtd">
<svg version="1.1" id="圖層_1" xmlns="http://www.w3.org/2000/svg" xmlns:xlink="http://www.w3.org/1999/xlink" x="0px" y="0px"
	 width="141.727px" height="57.498px" viewBox="0 0 141.727 57.498" enable-background="new 0 0 141.727 57.498"
	 xml:space="preserve">
<g>
	<polygon fill="#D5D6D5" points="50.431,20.662 50.431,13.826 51.158,13.826 53.658,20.086 56.15,13.826 56.877,13.826 
		56.877,20.662 56.414,20.662 56.414,14.355 53.867,20.662 53.441,20.662 50.895,14.355 50.895,20.662 	"/>
	<polygon fill="#D5D6D5" points="50.431,20.662 50.431,13.826 51.158,13.826 53.658,20.086 56.15,13.826 56.877,13.826 
		56.877,20.662 56.414,20.662 56.414,14.355 53.867,20.662 53.441,20.662 50.895,14.355 50.895,20.662 	"/>
	<path fill="#D5D6D5" d="M58.467,20.431c-0.346-0.274-0.518-0.605-0.518-0.99c0-0.37,0.168-0.692,0.506-0.969
		c0.33-0.276,0.746-0.438,1.246-0.484c0.484-0.046,0.881-0.123,1.188-0.23c0.316-0.107,0.475-0.235,0.475-0.379v-0.44
		c0-0.254-0.14-0.469-0.416-0.645c-0.27-0.178-0.602-0.266-0.992-0.266c-0.369,0-0.688,0.085-0.957,0.253
		c-0.262,0.177-0.391,0.387-0.391,0.623v0.253h-0.439v-0.299c0-0.33,0.172-0.61,0.518-0.841c0.355-0.231,0.777-0.348,1.27-0.348
		c0.508,0,0.941,0.111,1.303,0.334c0.359,0.224,0.541,0.493,0.541,0.808v2.973c0,0.193,0.043,0.358,0.127,0.496
		c0.084,0.14,0.189,0.208,0.312,0.208c0.038,0,0.073-0.003,0.103-0.013c0.031-0.007,0.055-0.018,0.07-0.033v0.219
		c-0.115,0.055-0.262,0.08-0.438,0.08c-0.178,0-0.332-0.075-0.461-0.228c-0.123-0.154-0.186-0.34-0.186-0.555
		c-0.092,0.263-0.289,0.472-0.589,0.635c-0.298,0.162-0.646,0.242-1.036,0.242C59.217,20.835,58.806,20.701,58.467,20.431
		 M60.785,20.086c0.314-0.261,0.508-0.596,0.576-1.002v-1.131c-0.109,0.093-0.304,0.171-0.588,0.23
		c-0.27,0.063-0.627,0.11-1.072,0.149c-0.361,0.031-0.666,0.155-0.91,0.369c-0.248,0.207-0.369,0.456-0.369,0.739
		c0,0.292,0.125,0.539,0.379,0.736c0.246,0.209,0.545,0.312,0.9,0.312C60.107,20.489,60.471,20.355,60.785,20.086"/>
	<path fill="#D5D6D5" d="M58.467,20.431c-0.346-0.274-0.518-0.605-0.518-0.99c0-0.37,0.168-0.692,0.506-0.969
		c0.33-0.276,0.746-0.438,1.246-0.484c0.484-0.046,0.881-0.123,1.188-0.23c0.316-0.107,0.475-0.235,0.475-0.379v-0.44
		c0-0.254-0.14-0.469-0.416-0.645c-0.27-0.178-0.602-0.266-0.992-0.266c-0.369,0-0.688,0.085-0.957,0.253
		c-0.262,0.177-0.391,0.387-0.391,0.623v0.253h-0.439v-0.299c0-0.33,0.172-0.61,0.518-0.841c0.355-0.231,0.777-0.348,1.27-0.348
		c0.508,0,0.941,0.111,1.303,0.334c0.359,0.224,0.541,0.493,0.541,0.808v2.973c0,0.193,0.043,0.358,0.127,0.496
		c0.084,0.14,0.189,0.208,0.312,0.208c0.038,0,0.073-0.003,0.103-0.013c0.031-0.007,0.055-0.018,0.07-0.033v0.219
		c-0.115,0.055-0.262,0.08-0.438,0.08c-0.178,0-0.332-0.075-0.461-0.228c-0.123-0.154-0.186-0.34-0.186-0.555
		c-0.092,0.263-0.289,0.472-0.589,0.635c-0.298,0.162-0.646,0.242-1.036,0.242C59.217,20.835,58.806,20.701,58.467,20.431z
		 M60.785,20.086c0.314-0.261,0.508-0.596,0.576-1.002v-1.131c-0.109,0.093-0.304,0.171-0.588,0.23
		c-0.27,0.063-0.627,0.11-1.072,0.149c-0.361,0.031-0.666,0.155-0.91,0.369c-0.248,0.207-0.369,0.456-0.369,0.739
		c0,0.292,0.125,0.539,0.379,0.736c0.246,0.209,0.545,0.312,0.9,0.312C60.107,20.489,60.471,20.355,60.785,20.086z"/>
	<path fill="#D5D6D5" d="M63.449,20.326c-0.369-0.305-0.555-0.677-0.555-1.116h0.428c0,0.331,0.141,0.614,0.426,0.853
		c0.283,0.229,0.625,0.346,1.025,0.346c0.461,0,0.834-0.104,1.119-0.312c0.275-0.216,0.415-0.495,0.415-0.841
		c0-0.263-0.146-0.485-0.438-0.67c-0.291-0.177-0.686-0.287-1.176-0.334c-0.523-0.045-0.938-0.191-1.244-0.437
		c-0.316-0.246-0.475-0.55-0.475-0.911c0-0.407,0.158-0.723,0.475-0.946c0.314-0.222,0.756-0.334,1.324-0.334
		c0.545,0,0.98,0.12,1.303,0.358c0.33,0.237,0.496,0.556,0.496,0.956h-0.438c-0.055-0.301-0.199-0.534-0.438-0.703
		s-0.547-0.254-0.924-0.254c-0.414,0-0.746,0.085-0.992,0.254s-0.367,0.392-0.367,0.669c0,0.261,0.148,0.484,0.447,0.668
		c0.292,0.177,0.686,0.29,1.178,0.334c0.514,0.047,0.93,0.2,1.244,0.462c0.309,0.262,0.461,0.589,0.461,0.98
		c0,0.437-0.18,0.787-0.541,1.048c-0.354,0.263-0.83,0.393-1.43,0.393C64.252,20.79,63.811,20.635,63.449,20.326"/>
	<path fill="#D5D6D5" d="M63.449,20.326c-0.369-0.305-0.555-0.677-0.555-1.116h0.428c0,0.331,0.141,0.614,0.426,0.853
		c0.283,0.229,0.625,0.346,1.025,0.346c0.461,0,0.834-0.104,1.119-0.312c0.275-0.216,0.415-0.495,0.415-0.841
		c0-0.263-0.146-0.485-0.438-0.67c-0.291-0.177-0.686-0.287-1.176-0.334c-0.523-0.045-0.938-0.191-1.244-0.437
		c-0.316-0.246-0.475-0.55-0.475-0.911c0-0.407,0.158-0.723,0.475-0.946c0.314-0.222,0.756-0.334,1.324-0.334
		c0.545,0,0.98,0.12,1.303,0.358c0.33,0.237,0.496,0.556,0.496,0.956h-0.438c-0.055-0.301-0.199-0.534-0.438-0.703
		s-0.547-0.254-0.924-0.254c-0.414,0-0.746,0.085-0.992,0.254s-0.367,0.392-0.367,0.669c0,0.261,0.148,0.484,0.447,0.668
		c0.292,0.177,0.686,0.29,1.178,0.334c0.514,0.047,0.93,0.2,1.244,0.462c0.309,0.262,0.461,0.589,0.461,0.98
		c0,0.437-0.18,0.787-0.541,1.048c-0.354,0.263-0.83,0.393-1.43,0.393C64.252,20.79,63.811,20.635,63.449,20.326z"/>
	<path fill="#D5D6D5" d="M68.129,20.523c-0.178-0.199-0.266-0.445-0.266-0.737v-3.678H67.16v-0.357h0.703v-1.395h0.463v1.395h0.668
		v0.357h-0.668v3.678c0,0.193,0.047,0.357,0.147,0.496c0.093,0.139,0.207,0.207,0.347,0.207c0.146,0,0.266-0.027,0.357-0.08v0.335
		c-0.17,0.062-0.301,0.091-0.393,0.091C68.531,20.835,68.314,20.731,68.129,20.523"/>
	<path fill="#D5D6D5" d="M68.129,20.523c-0.178-0.199-0.266-0.445-0.266-0.737v-3.678H67.16v-0.357h0.703v-1.395h0.463v1.395h0.668
		v0.357h-0.668v3.678c0,0.193,0.047,0.357,0.147,0.496c0.093,0.139,0.207,0.207,0.347,0.207c0.146,0,0.266-0.027,0.357-0.08v0.335
		c-0.17,0.062-0.301,0.091-0.393,0.091C68.531,20.835,68.314,20.731,68.129,20.523z"/>
	<path fill="#D5D6D5" d="M70.297,20.121c-0.4-0.485-0.602-1.121-0.602-1.915c0-0.791,0.201-1.429,0.602-1.913
		c0.398-0.477,0.93-0.716,1.588-0.716c0.662,0,1.193,0.219,1.592,0.657c0.4,0.438,0.602,1.022,0.602,1.752v0.219h-3.92
		c0,0.669,0.156,1.203,0.473,1.603c0.314,0.398,0.734,0.6,1.256,0.6c0.393,0,0.746-0.104,1.061-0.312
		c0.324-0.216,0.547-0.495,0.67-0.841h0.461c-0.076,0.452-0.322,0.829-0.736,1.128c-0.416,0.299-0.9,0.449-1.455,0.449
		C71.227,20.835,70.695,20.598,70.297,20.121 M73.617,17.769v-0.171c-0.039-0.455-0.223-0.838-0.553-1.154
		c-0.341-0.308-0.73-0.462-1.178-0.462c-0.445,0-0.834,0.159-1.164,0.475c-0.338,0.322-0.527,0.718-0.564,1.188v0.125H73.617
		L73.617,17.769z"/>
	<path fill="#D5D6D5" d="M70.297,20.121c-0.4-0.485-0.602-1.121-0.602-1.915c0-0.791,0.201-1.429,0.602-1.913
		c0.398-0.477,0.93-0.716,1.588-0.716c0.662,0,1.193,0.219,1.592,0.657c0.4,0.438,0.602,1.022,0.602,1.752v0.219h-3.92
		c0,0.669,0.156,1.203,0.473,1.603c0.314,0.398,0.734,0.6,1.256,0.6c0.393,0,0.746-0.104,1.061-0.312
		c0.324-0.216,0.547-0.495,0.67-0.841h0.461c-0.076,0.452-0.322,0.829-0.736,1.128c-0.416,0.299-0.9,0.449-1.455,0.449
		C71.227,20.835,70.695,20.598,70.297,20.121z M73.617,17.769v-0.171c-0.039-0.455-0.223-0.838-0.553-1.154
		c-0.341-0.308-0.73-0.462-1.178-0.462c-0.445,0-0.834,0.159-1.164,0.475c-0.338,0.322-0.527,0.718-0.564,1.188v0.125H73.617
		L73.617,17.769z"/>
	<path fill="#D5D6D5" d="M75.16,20.662v-4.911h0.463v1.107c0.131-0.354,0.322-0.642,0.574-0.865
		c0.264-0.215,0.539-0.323,0.831-0.323h0.267v0.531c-0.025,0-0.051-0.008-0.082-0.024c-0.021-0.015-0.037-0.023-0.047-0.023
		c-0.36,0-0.686,0.155-0.979,0.461c-0.293,0.308-0.48,0.696-0.566,1.165v2.882H75.16L75.16,20.662z"/>
	<path fill="#D5D6D5" d="M75.16,20.662v-4.911h0.463v1.107c0.131-0.354,0.322-0.642,0.574-0.865
		c0.264-0.215,0.539-0.323,0.831-0.323h0.267v0.531c-0.025,0-0.051-0.008-0.082-0.024c-0.021-0.015-0.037-0.023-0.047-0.023
		c-0.36,0-0.686,0.155-0.979,0.461c-0.293,0.308-0.48,0.696-0.566,1.165v2.882H75.16L75.16,20.662z"/>
	<path fill="#D5D6D5" d="M82.252,19.786c-0.553-0.638-0.83-1.483-0.83-2.536c0-1.093,0.277-1.964,0.83-2.618s1.291-0.98,2.213-0.98
		c0.924,0,1.66,0.327,2.215,0.98c0.553,0.653,0.83,1.524,0.83,2.618c0,1.052-0.277,1.898-0.83,2.536
		c-0.555,0.639-1.291,0.957-2.215,0.957C83.543,20.743,82.805,20.425,82.252,19.786 M86.344,19.475
		c0.469-0.553,0.703-1.293,0.703-2.224c0-0.954-0.234-1.718-0.703-2.294c-0.469-0.575-1.094-0.865-1.879-0.865
		c-0.784,0-1.41,0.29-1.879,0.865c-0.469,0.576-0.703,1.341-0.703,2.294c0,0.93,0.234,1.671,0.703,2.224
		c0.469,0.563,1.095,0.842,1.879,0.842C85.25,20.317,85.875,20.037,86.344,19.475"/>
	<path fill="#D5D6D5" d="M82.252,19.786c-0.553-0.638-0.83-1.483-0.83-2.536c0-1.093,0.277-1.964,0.83-2.618s1.291-0.98,2.213-0.98
		c0.924,0,1.66,0.327,2.215,0.98c0.553,0.653,0.83,1.524,0.83,2.618c0,1.052-0.277,1.898-0.83,2.536
		c-0.555,0.639-1.291,0.957-2.215,0.957C83.543,20.743,82.805,20.425,82.252,19.786z M86.344,19.475
		c0.469-0.553,0.703-1.293,0.703-2.224c0-0.954-0.234-1.718-0.703-2.294c-0.469-0.575-1.094-0.865-1.879-0.865
		c-0.784,0-1.41,0.29-1.879,0.865c-0.469,0.576-0.703,1.341-0.703,2.294c0,0.93,0.234,1.671,0.703,2.224
		c0.469,0.563,1.095,0.842,1.879,0.842C85.25,20.317,85.875,20.037,86.344,19.475z"/>
	<path fill="#D5D6D5" d="M88.615,20.662v-4.911h0.461v1.107c0.131-0.354,0.324-0.642,0.576-0.865
		c0.262-0.215,0.539-0.323,0.832-0.323h0.264v0.531c-0.023,0-0.049-0.008-0.08-0.024c-0.023-0.015-0.039-0.023-0.047-0.023
		c-0.361,0-0.688,0.155-0.979,0.461c-0.293,0.308-0.481,0.696-0.565,1.165v2.882H88.615L88.615,20.662z"/>
	<path fill="#D5D6D5" d="M88.615,20.662v-4.911h0.461v1.107c0.131-0.354,0.324-0.642,0.576-0.865
		c0.262-0.215,0.539-0.323,0.832-0.323h0.264v0.531c-0.023,0-0.049-0.008-0.08-0.024c-0.023-0.015-0.039-0.023-0.047-0.023
		c-0.361,0-0.688,0.155-0.979,0.461c-0.293,0.308-0.481,0.696-0.565,1.165v2.882H88.615L88.615,20.662z"/>
	<path fill="#D5D6D5" d="M91.556,13.826h0.46v0.703h-0.46V13.826z M91.556,15.751h0.46v4.911h-0.46V15.751z"/>
	<path fill="#D5D6D5" d="M91.556,13.826h0.46v0.703h-0.46V13.826z M91.556,15.751h0.46v4.911h-0.46V15.751z"/>
	<path fill="#D5D6D5" d="M93.814,21.954c-0.414-0.316-0.623-0.693-0.623-1.131h0.439c0,0.331,0.162,0.614,0.484,0.854
		c0.33,0.23,0.725,0.346,1.188,0.346c0.508,0,0.912-0.134,1.211-0.403c0.307-0.27,0.459-0.631,0.459-1.085v-1.001
		c-0.145,0.322-0.367,0.575-0.668,0.759c-0.307,0.193-0.637,0.29-0.992,0.29c-0.645,0-1.16-0.226-1.543-0.681
		c-0.395-0.459-0.589-1.068-0.589-1.82c0-0.755,0.194-1.361,0.589-1.822c0.383-0.453,0.898-0.679,1.543-0.679
		c0.377,0,0.721,0.099,1.027,0.298c0.299,0.2,0.511,0.465,0.633,0.796v-0.921h0.463v4.796c0,0.591-0.188,1.049-0.564,1.371
		c-0.369,0.331-0.893,0.497-1.568,0.497C94.719,22.416,94.223,22.26,93.814,21.954 M96.49,19.603
		c0.322-0.422,0.482-0.93,0.482-1.523c0-0.591-0.16-1.097-0.482-1.521c-0.322-0.416-0.715-0.623-1.176-0.623
		c-0.507,0-0.911,0.197-1.211,0.589c-0.307,0.391-0.461,0.91-0.461,1.554c0,0.646,0.154,1.165,0.461,1.559
		c0.3,0.392,0.704,0.588,1.211,0.588C95.775,20.226,96.168,20.018,96.49,19.603"/>
	<path fill="#D5D6D5" d="M93.814,21.954c-0.414-0.316-0.623-0.693-0.623-1.131h0.439c0,0.331,0.162,0.614,0.484,0.854
		c0.33,0.23,0.725,0.346,1.188,0.346c0.508,0,0.912-0.134,1.211-0.403c0.307-0.27,0.459-0.631,0.459-1.085v-1.001
		c-0.145,0.322-0.367,0.575-0.668,0.759c-0.307,0.193-0.637,0.29-0.992,0.29c-0.645,0-1.16-0.226-1.543-0.681
		c-0.395-0.459-0.589-1.068-0.589-1.82c0-0.755,0.194-1.361,0.589-1.822c0.383-0.453,0.898-0.679,1.543-0.679
		c0.377,0,0.721,0.099,1.027,0.298c0.299,0.2,0.511,0.465,0.633,0.796v-0.921h0.463v4.796c0,0.591-0.188,1.049-0.564,1.371
		c-0.369,0.331-0.893,0.497-1.568,0.497C94.719,22.416,94.223,22.26,93.814,21.954z M96.49,19.603
		c0.322-0.422,0.482-0.93,0.482-1.523c0-0.591-0.16-1.097-0.482-1.521c-0.322-0.416-0.715-0.623-1.176-0.623
		c-0.507,0-0.911,0.197-1.211,0.589c-0.307,0.391-0.461,0.91-0.461,1.554c0,0.646,0.154,1.165,0.461,1.559
		c0.3,0.392,0.704,0.588,1.211,0.588C95.775,20.226,96.168,20.018,96.49,19.603z"/>
	<path fill="#D5D6D5" d="M98.91,13.826h0.463v0.703H98.91V13.826z M98.91,15.751h0.463v4.911H98.91V15.751z"/>
	<path fill="#D5D6D5" d="M98.91,13.826h0.463v0.703H98.91V13.826z M98.91,15.751h0.463v4.911H98.91V15.751z"/>
	<path fill="#D5D6D5" d="M100.848,20.662v-4.911h0.463v0.83c0.137-0.291,0.348-0.521,0.633-0.691c0.285-0.176,0.6-0.266,0.946-0.266
		c0.483,0,0.896,0.157,1.233,0.474c0.346,0.323,0.518,0.708,0.518,1.153v3.412h-0.461V17.25c0-0.338-0.127-0.626-0.381-0.865
		c-0.254-0.238-0.557-0.357-0.909-0.357c-0.386,0-0.728,0.129-1.026,0.391c-0.301,0.269-0.484,0.603-0.553,1.004v3.239H100.848
		L100.848,20.662z"/>
	<path fill="#D5D6D5" d="M100.848,20.662v-4.911h0.463v0.83c0.137-0.291,0.348-0.521,0.633-0.691c0.285-0.176,0.6-0.266,0.946-0.266
		c0.483,0,0.896,0.157,1.233,0.474c0.346,0.323,0.518,0.708,0.518,1.153v3.412h-0.461V17.25c0-0.338-0.127-0.626-0.381-0.865
		c-0.254-0.238-0.557-0.357-0.909-0.357c-0.386,0-0.728,0.129-1.026,0.391c-0.301,0.269-0.484,0.603-0.553,1.004v3.239H100.848
		L100.848,20.662z"/>
	<path fill="#D5D6D5" d="M106.152,20.431c-0.347-0.274-0.52-0.605-0.52-0.99c0-0.37,0.17-0.692,0.507-0.969
		c0.331-0.276,0.745-0.438,1.245-0.484c0.484-0.046,0.88-0.123,1.189-0.23c0.314-0.107,0.471-0.235,0.471-0.379v-0.44
		c0-0.254-0.139-0.469-0.414-0.645c-0.27-0.178-0.6-0.266-0.992-0.266c-0.367,0-0.688,0.085-0.958,0.253
		c-0.261,0.177-0.39,0.387-0.39,0.623v0.253h-0.44v-0.299c0-0.33,0.175-0.61,0.521-0.841c0.353-0.231,0.775-0.348,1.268-0.348
		c0.508,0,0.941,0.111,1.305,0.334c0.359,0.224,0.541,0.493,0.541,0.808v2.973c0,0.193,0.043,0.358,0.127,0.496
		c0.084,0.14,0.188,0.208,0.311,0.208c0.039,0,0.072-0.003,0.104-0.013c0.031-0.007,0.053-0.018,0.07-0.033v0.219
		c-0.115,0.055-0.262,0.08-0.439,0.08s-0.33-0.075-0.461-0.228c-0.123-0.154-0.184-0.34-0.184-0.555
		c-0.092,0.263-0.289,0.472-0.59,0.635c-0.299,0.162-0.645,0.242-1.037,0.242C106.9,20.835,106.49,20.701,106.152,20.431
		 M108.471,20.086c0.313-0.261,0.505-0.596,0.574-1.002v-1.131c-0.107,0.093-0.303,0.171-0.588,0.23
		c-0.27,0.063-0.627,0.11-1.072,0.149c-0.361,0.031-0.666,0.155-0.911,0.369c-0.245,0.207-0.368,0.456-0.368,0.739
		c0,0.292,0.127,0.539,0.379,0.736c0.246,0.209,0.547,0.312,0.9,0.312C107.793,20.489,108.152,20.355,108.471,20.086"/>
	<path fill="#D5D6D5" d="M106.152,20.431c-0.347-0.274-0.52-0.605-0.52-0.99c0-0.37,0.17-0.692,0.507-0.969
		c0.331-0.276,0.745-0.438,1.245-0.484c0.484-0.046,0.88-0.123,1.189-0.23c0.314-0.107,0.471-0.235,0.471-0.379v-0.44
		c0-0.254-0.139-0.469-0.414-0.645c-0.27-0.178-0.6-0.266-0.992-0.266c-0.367,0-0.688,0.085-0.958,0.253
		c-0.261,0.177-0.39,0.387-0.39,0.623v0.253h-0.44v-0.299c0-0.33,0.175-0.61,0.521-0.841c0.353-0.231,0.775-0.348,1.268-0.348
		c0.508,0,0.941,0.111,1.305,0.334c0.359,0.224,0.541,0.493,0.541,0.808v2.973c0,0.193,0.043,0.358,0.127,0.496
		c0.084,0.14,0.188,0.208,0.311,0.208c0.039,0,0.072-0.003,0.104-0.013c0.031-0.007,0.053-0.018,0.07-0.033v0.219
		c-0.115,0.055-0.262,0.08-0.439,0.08s-0.33-0.075-0.461-0.228c-0.123-0.154-0.184-0.34-0.184-0.555
		c-0.092,0.263-0.289,0.472-0.59,0.635c-0.299,0.162-0.645,0.242-1.037,0.242C106.9,20.835,106.49,20.701,106.152,20.431z
		 M108.471,20.086c0.313-0.261,0.505-0.596,0.574-1.002v-1.131c-0.107,0.093-0.303,0.171-0.588,0.23
		c-0.27,0.063-0.627,0.11-1.072,0.149c-0.361,0.031-0.666,0.155-0.911,0.369c-0.245,0.207-0.368,0.456-0.368,0.739
		c0,0.292,0.127,0.539,0.379,0.736c0.246,0.209,0.547,0.312,0.9,0.312C107.793,20.489,108.152,20.355,108.471,20.086z"/>
	<rect x="110.982" y="13.826" fill="#D5D6D5" width="0.461" height="6.836"/>
	<rect x="110.982" y="13.826" fill="#D5D6D5" width="0.461" height="6.836"/>
	<polygon fill="#D5D6D5" points="116.607,20.662 116.607,13.826 117.334,13.826 119.838,20.086 122.326,13.826 123.053,13.826 
		123.053,20.662 122.594,20.662 122.594,14.355 120.043,20.662 119.617,20.662 117.07,14.355 117.07,20.662 	"/>
	<polygon fill="#D5D6D5" points="116.607,20.662 116.607,13.826 117.334,13.826 119.838,20.086 122.326,13.826 123.053,13.826 
		123.053,20.662 122.594,20.662 122.594,14.355 120.043,20.662 119.617,20.662 117.07,14.355 117.07,20.662 	"/>
	<path fill="#D5D6D5" d="M124.852,20.051c-0.424-0.461-0.635-1.075-0.635-1.844c0-0.791,0.211-1.429,0.635-1.913
		c0.413-0.477,0.971-0.716,1.67-0.716c0.693,0,1.25,0.239,1.674,0.716c0.414,0.484,0.621,1.122,0.621,1.913
		c0,0.769-0.207,1.383-0.621,1.844c-0.424,0.463-0.98,0.692-1.674,0.692C125.824,20.744,125.265,20.514,124.852,20.051
		 M127.861,19.774c0.33-0.391,0.494-0.914,0.494-1.568c0-0.676-0.164-1.213-0.494-1.614c-0.34-0.408-0.785-0.612-1.338-0.612
		c-0.563,0-1.008,0.204-1.338,0.612c-0.338,0.4-0.508,0.938-0.508,1.614c0,0.654,0.17,1.177,0.508,1.568
		c0.33,0.394,0.775,0.588,1.338,0.588C127.076,20.362,127.521,20.168,127.861,19.774"/>
	<path fill="#D5D6D5" d="M124.852,20.051c-0.424-0.461-0.635-1.075-0.635-1.844c0-0.791,0.211-1.429,0.635-1.913
		c0.413-0.477,0.971-0.716,1.67-0.716c0.693,0,1.25,0.239,1.674,0.716c0.414,0.484,0.621,1.122,0.621,1.913
		c0,0.769-0.207,1.383-0.621,1.844c-0.424,0.463-0.98,0.692-1.674,0.692C125.824,20.744,125.265,20.514,124.852,20.051z
		 M127.861,19.774c0.33-0.391,0.494-0.914,0.494-1.568c0-0.676-0.164-1.213-0.494-1.614c-0.34-0.408-0.785-0.612-1.338-0.612
		c-0.563,0-1.008,0.204-1.338,0.612c-0.338,0.4-0.508,0.938-0.508,1.614c0,0.654,0.17,1.177,0.508,1.568
		c0.33,0.394,0.775,0.588,1.338,0.588C127.076,20.362,127.521,20.168,127.861,19.774z"/>
	<path fill="#D5D6D5" d="M130.281,20.028c-0.424-0.499-0.635-1.106-0.635-1.82c0-0.722,0.211-1.342,0.635-1.857
		c0.424-0.514,0.93-0.772,1.523-0.772c0.375,0,0.721,0.111,1.037,0.335c0.305,0.229,0.529,0.53,0.668,0.899v-2.986h0.461v6.836
		h-0.461V19.66c-0.123,0.338-0.342,0.61-0.658,0.818c-0.307,0.207-0.656,0.311-1.047,0.311
		C131.211,20.789,130.705,20.535,130.281,20.028 M133.014,19.786c0.332-0.438,0.496-0.965,0.496-1.578
		c0-0.615-0.164-1.138-0.496-1.569c-0.338-0.438-0.742-0.658-1.209-0.658c-0.471,0-0.869,0.22-1.201,0.658
		c-0.328,0.431-0.496,0.954-0.496,1.569c0,0.613,0.168,1.142,0.496,1.578c0.332,0.439,0.73,0.657,1.201,0.657
		C132.271,20.443,132.676,20.224,133.014,19.786"/>
	<path fill="#D5D6D5" d="M130.281,20.028c-0.424-0.499-0.635-1.106-0.635-1.82c0-0.722,0.211-1.342,0.635-1.857
		c0.424-0.514,0.93-0.772,1.523-0.772c0.375,0,0.721,0.111,1.037,0.335c0.305,0.229,0.529,0.53,0.668,0.899v-2.986h0.461v6.836
		h-0.461V19.66c-0.123,0.338-0.342,0.61-0.658,0.818c-0.307,0.207-0.656,0.311-1.047,0.311
		C131.211,20.789,130.705,20.535,130.281,20.028z M133.014,19.786c0.332-0.438,0.496-0.965,0.496-1.578
		c0-0.615-0.164-1.138-0.496-1.569c-0.338-0.438-0.742-0.658-1.209-0.658c-0.471,0-0.869,0.22-1.201,0.658
		c-0.328,0.431-0.496,0.954-0.496,1.569c0,0.613,0.168,1.142,0.496,1.578c0.332,0.439,0.73,0.657,1.201,0.657
		C132.271,20.443,132.676,20.224,133.014,19.786z"/>
	<path fill="#D5D6D5" d="M135.746,20.121c-0.398-0.485-0.6-1.121-0.6-1.915c0-0.791,0.201-1.429,0.6-1.913
		c0.398-0.477,0.93-0.716,1.59-0.716c0.662,0,1.191,0.219,1.592,0.657s0.6,1.022,0.6,1.752v0.219h-3.92
		c0,0.669,0.157,1.203,0.473,1.603c0.314,0.398,0.734,0.6,1.256,0.6c0.393,0,0.744-0.104,1.063-0.312
		c0.322-0.216,0.543-0.495,0.668-0.841h0.462c-0.077,0.452-0.323,0.829-0.739,1.128c-0.414,0.299-0.899,0.449-1.453,0.449
		C136.676,20.835,136.145,20.598,135.746,20.121 M139.066,17.769v-0.171c-0.039-0.455-0.223-0.838-0.553-1.154
		c-0.34-0.308-0.73-0.462-1.178-0.462c-0.445,0-0.832,0.159-1.162,0.475c-0.34,0.322-0.527,0.718-0.566,1.188v0.125H139.066
		L139.066,17.769z"/>
	<path fill="#D5D6D5" d="M135.746,20.121c-0.398-0.485-0.6-1.121-0.6-1.915c0-0.791,0.201-1.429,0.6-1.913
		c0.398-0.477,0.93-0.716,1.59-0.716c0.662,0,1.191,0.219,1.592,0.657s0.6,1.022,0.6,1.752v0.219h-3.92
		c0,0.669,0.157,1.203,0.473,1.603c0.314,0.398,0.734,0.6,1.256,0.6c0.393,0,0.744-0.104,1.063-0.312
		c0.322-0.216,0.543-0.495,0.668-0.841h0.462c-0.077,0.452-0.323,0.829-0.739,1.128c-0.414,0.299-0.899,0.449-1.453,0.449
		C136.676,20.835,136.145,20.598,135.746,20.121z M139.066,17.769v-0.171c-0.039-0.455-0.223-0.838-0.553-1.154
		c-0.34-0.308-0.73-0.462-1.178-0.462c-0.445,0-0.832,0.159-1.162,0.475c-0.34,0.322-0.527,0.718-0.566,1.188v0.125H139.066
		L139.066,17.769z"/>
	<rect x="140.613" y="13.826" fill="#D5D6D5" width="0.459" height="6.836"/>
	<rect x="140.613" y="13.826" fill="#D5D6D5" width="0.459" height="6.836"/>
	<path fill="#D5D6D5" d="M63.193,28.343v16.475h13.107c1.137-1.382,1.795-2.074,1.978-2.074c0.181,0,0.7,0.375,1.558,1.127
		c0.842,0.752,1.262,1.188,1.262,1.309c0,0.18-0.066,0.27-0.199,0.27h-17.73v0.789c0,0.555-0.817,0.834-2.447,0.834
		c-0.645,0-0.967-0.158-0.967-0.475c0.082-3.109,0.125-5.256,0.125-6.444V31.16c0-1.878-0.084-3.336-0.248-4.372
		c0.857,0.195,2.127,0.504,3.809,0.923h12.268c1.234-1.217,1.928-1.826,2.076-1.826c0.164,0,0.676,0.332,1.533,0.993
		c0.857,0.661,1.287,1.051,1.287,1.172c0,0.196-0.084,0.293-0.248,0.293H63.193L63.193,28.343z M75.582,28.522
		c0.051,0,0.604,0.354,1.658,1.06c1.07,0.706,1.607,1.134,1.607,1.282c0,0.197-0.125,0.295-0.372,0.295
		c-0.05,0-0.091-0.007-0.124-0.023c-0.443-0.089-0.732-0.135-0.864-0.135c-0.034,0-0.058,0.008-0.075,0.023
		c-2.637,0.631-5.473,0.945-8.506,0.945h-0.1v2.771h6.43c1.188-1.261,1.862-1.891,2.027-1.891c0.133,0,0.602,0.33,1.41,0.99
		c0.824,0.66,1.236,1.051,1.236,1.171c0,0.181-0.082,0.272-0.246,0.272h-4.625v4.416c0,0.242,0.033,1.393,0.1,3.448
		c0,0.466-0.809,0.699-2.424,0.699c-0.561,0-0.842-0.165-0.842-0.497V43.33c0.033-1.486,0.049-2.801,0.049-3.944v-4.101h-3.164
		v0.225c0,4.104-1.73,6.934-5.193,8.496l-0.271-0.27c1.564-1.877,2.349-4.479,2.349-7.797v-2.21c0-1.367-0.083-2.435-0.247-3.2
		c0.709,0.148,1.303,0.285,1.781,0.406c0.51,0.135,1.096,0.284,1.755,0.449c0.644-0.074,1.739-0.435,3.29-1.081
		C73.785,29.658,74.904,29.065,75.582,28.522"/>
	<path fill="#D5D6D5" d="M111.605,27.779c1.254-1.262,1.945-1.894,2.076-1.894c0.182,0,0.686,0.324,1.51,0.97
		c0.842,0.646,1.26,1.051,1.26,1.217c0,0.18-0.105,0.271-0.32,0.271h-6.529c-0.824,1.125-2.102,2.058-3.834,2.795h4.699
		c1.023-0.768,1.6-1.15,1.73-1.15c0.15,0,0.604,0.232,1.36,0.697c0.759,0.468,1.138,0.797,1.138,0.992
		c0,0.152-0.049,0.25-0.148,0.293c-0.459,0.271-0.691,0.528-0.691,0.768v2.004c0,0.211,0.033,1.438,0.098,3.676
		c0,0.51-0.766,0.766-2.299,0.766c-0.643,0-0.965-0.135-0.965-0.405v-0.632h-1.582v6.311c0,0.826-0.445,1.458-1.336,1.895
		c-0.873,0.449-1.574,0.676-2.102,0.676c-0.297,0-0.463-0.205-0.494-0.608c-0.084-0.647-0.264-1.12-0.545-1.42
		c-0.266-0.315-0.883-0.571-1.855-0.767l0.049-0.406c0.842,0.076,1.641,0.113,2.4,0.113h0.271c0.33,0,0.496-0.18,0.496-0.542v-5.251
		h-1.83v0.248c0,0.496-0.801,0.744-2.398,0.744c-0.578,0-0.867-0.143-0.867-0.43c0.082-2.057,0.125-3.207,0.125-3.447v-1.463
		c0-1.459-0.059-2.674-0.174-3.652c0.725,0.195,1.344,0.367,1.854,0.52c0.512,0.148,1.063,0.309,1.658,0.473h0.791
		c0.28-0.947,0.422-1.879,0.422-2.795h-6.383v6.266c0,4.146-0.469,7.016-1.408,8.608c-0.941,1.608-2.244,2.841-3.908,3.697
		L93.6,46.667c1.551-1.729,2.326-5.687,2.326-11.878v-3.584c0-2.088-0.059-3.582-0.174-4.485c0.693,0.166,1.328,0.332,1.904,0.498
		c0.578,0.18,1.18,0.353,1.807,0.518L111.605,27.779z M97.436,45.494l-0.199-0.203c2.193-1.682,3.693-3.666,4.502-5.949
		c2.424,0.916,3.637,1.488,3.637,1.711c0,0.166-0.274,0.258-0.818,0.271c-0.197,0.016-0.305,0.031-0.32,0.045
		C102.637,43.278,100.369,44.652,97.436,45.494 M110.74,31.746h-6.553v2.455h6.553V31.746z M110.74,34.742h-6.553v2.862h6.553
		V34.742z M109.875,40.175l0.172-0.271c1.566,0.196,3,0.623,4.303,1.285s1.955,1.442,1.955,2.342c0,1.068-0.496,1.602-1.484,1.602
		c-0.512,0-1.064-0.571-1.656-1.713C112.338,41.917,111.242,40.835,109.875,40.175"/>
	<path fill="#D5D6D5" d="M127.309,28.116c-0.725,0.933-1.311,1.592-1.756,1.985c1.912,0.061,2.869,0.654,2.869,1.781
		c0,0.898-0.553,1.352-1.657,1.352c-0.642,0-0.981-0.346-1.015-1.037c-0.016-1.082-0.23-1.623-0.643-1.623
		c-0.906,0.855-1.961,1.607-3.166,2.254l2.227,0.654h4.799c0.824-0.631,1.285-0.948,1.384-0.948c0.134,0,0.544,0.218,1.237,0.655
		c0.691,0.42,1.039,0.729,1.039,0.924c0,0.104-0.049,0.195-0.148,0.271c-0.363,0.271-0.545,0.45-0.545,0.542v1.803
		c0,0.24,0.041,1.148,0.124,2.727c0,0.449-0.718,0.676-2.151,0.676c-0.529,0-0.793-0.143-0.793-0.43v-0.315h-5.217
		c-0.033,0.558-0.117,1.022-0.246,1.399c0.51,0.119,1.285,0.315,2.323,0.584h3.19c0.823-0.676,1.295-1.014,1.41-1.014
		c0.163,0,0.609,0.203,1.336,0.608c0.725,0.392,1.086,0.685,1.086,0.88c0,0.12-0.057,0.218-0.172,0.292
		c-0.363,0.257-0.545,0.437-0.545,0.54v1.488c0,0.166,0.01,0.564,0.025,1.195c0.018,0.33,0.031,0.609,0.049,0.832
		c0,0.451-0.758,0.678-2.273,0.678c-0.48,0-0.719-0.143-0.719-0.428v-0.879h-3.512v0.856c0,0.419-0.71,0.63-2.127,0.63
		c-0.576,0-0.865-0.127-0.865-0.382c0.051-0.962,0.073-1.668,0.073-2.119v-1.759c-0.956,2.014-2.25,3.328-3.882,3.944l-0.223-0.224
		c1.436-1.594,2.152-4.885,2.152-9.874c0-1.472-0.051-2.591-0.15-3.357c-0.707,0.3-1.326,0.503-1.854,0.607l-0.147-0.313
		c1.436-0.887,2.67-2.111,3.711-3.674c1.053-1.547,1.688-2.886,1.902-4.013c2.854,0.721,4.279,1.181,4.279,1.375
		c0,0.286-0.338,0.429-1.014,0.429c1.236,0.121,2.432,0.474,3.586,1.061c1.137,0.584,1.705,1.27,1.705,2.049
		c0,1.021-0.525,1.533-1.582,1.533c-0.66,0-1.195-0.466-1.607-1.396c-0.33-0.766-0.793-1.428-1.385-1.984
		C127.828,28.396,127.457,28.116,127.309,28.116 M129.139,36.613h-5.145v1.104c0,0.421-0.008,0.774-0.023,1.061h5.168V36.613z
		 M129.139,34.023h-5.145v2.027h5.145V34.023z M129.41,41.933h-3.512v3.109h3.512V41.933z M133.64,31.701
		c0-1.773-0.065-3.049-0.196-3.832c2.506,0.391,3.758,0.7,3.758,0.925c0,0.12-0.066,0.202-0.197,0.247
		c-0.396,0.181-0.594,0.3-0.594,0.36v7.731c0,0.377,0.041,1.676,0.125,3.898c0,0.422-0.701,0.631-2.104,0.631
		c-0.593,0-0.888-0.143-0.888-0.428v-0.022c0.064-1.908,0.098-3.417,0.098-4.53L133.64,31.701L133.64,31.701z M140.961,44.118
		c0,1.489-1.006,2.437-3.02,2.841h-0.021c-0.184,0.045-0.332,0.068-0.446,0.068c-0.28,0-0.445-0.113-0.495-0.34
		c-0.133-0.886-0.305-1.479-0.52-1.779c-0.23-0.314-1.006-0.615-2.324-0.902l0.098-0.451c1.039,0.076,2.096,0.115,3.166,0.115
		c0.33,0,0.496-0.16,0.496-0.475V29.853c0-1.774-0.066-3.042-0.199-3.81c2.689,0.376,4.031,0.676,4.031,0.903
		c0,0.121-0.074,0.203-0.223,0.248c-0.363,0.166-0.543,0.292-0.543,0.384V44.118L140.961,44.118z"/>
	<path fill="#D5D6D5" d="M28.75,50.142c-11.797,0-21.393-9.6-21.393-21.393c0-11.796,9.596-21.394,21.393-21.394
		c4.863,0,9.445,1.59,13.25,4.598l4.563-5.771C41.445,2.136,35.285,0,28.75,0C12.896,0,0,12.897,0,28.749
		s12.896,28.749,28.75,28.749c7.92,0,15.57-3.316,20.986-9.1l-5.371-5.029C40.275,47.737,34.729,50.142,28.75,50.142"/>
	<path fill="#D5D6D5" d="M50.096,25.07H17.465c0.688-2.126,1.966-4.018,3.732-5.472c2.444-2.014,5.523-2.954,8.678-2.648
		c2.365,0.228,4.578,1.144,6.398,2.65l4.688-5.671c-2.957-2.443-6.545-3.93-10.377-4.302c-5.104-0.491-10.102,1.03-14.063,4.291
		c-3.963,3.263-6.416,7.872-6.91,12.98c-0.886,9.153,4.863,17.681,13.674,20.276l2.08-7.059c-3.826-1.127-6.707-4.072-7.893-7.688
		H39.99c-1.342,4.09-4.844,7.234-9.201,7.998l1.271,7.248c7.857-1.379,14.012-7.524,15.523-15.246h2.512
		c0.209-1.195,0.318-2.424,0.318-3.678C50.414,27.494,50.305,26.266,50.096,25.07"/>
	<circle fill="#A11F24" cx="50.803" cy="42.145" r="3.192"/>
	<circle fill="#A11F24" cx="87.395" cy="37.29" r="3.192"/>
</g>
</svg>
