<?xml version="1.0" encoding="utf-8"?>
<!-- Generator: Adobe Illustrator 16.0.0, SVG Export Plug-In . SVG Version: 6.00 Build 0)  -->
<!DOCTYPE svg PUBLIC "-//W3C//DTD SVG 1.1//EN" "http://www.w3.org/Graphics/SVG/1.1/DTD/svg11.dtd">
<svg version="1.1" id="圖層_1" xmlns="http://www.w3.org/2000/svg" xmlns:xlink="http://www.w3.org/1999/xlink" x="0px" y="0px"
	 width="141.727px" height="57.498px" viewBox="0 0 141.727 57.498" enable-background="new 0 0 141.727 57.498"
	 xml:space="preserve">
<g>
	<polygon fill="#575554" points="50.431,20.662 50.431,13.826 51.158,13.826 53.658,20.086 56.15,13.826 56.877,13.826 
		56.877,20.662 56.414,20.662 56.414,14.355 53.867,20.662 53.441,20.662 50.895,14.355 50.895,20.662 	"/>
	<polygon fill="#575554" points="50.431,20.662 50.431,13.826 51.158,13.826 53.658,20.086 56.15,13.826 56.877,13.826 
		56.877,20.662 56.414,20.662 56.414,14.355 53.867,20.662 53.441,20.662 50.895,14.355 50.895,20.662 	"/>
	<path fill="#575554" d="M58.467,20.431c-0.346-0.274-0.518-0.605-0.518-0.99c0-0.37,0.168-0.692,0.506-0.969
		c0.33-0.276,0.746-0.438,1.246-0.484c0.483-0.046,0.881-0.123,1.188-0.23c0.316-0.107,0.475-0.235,0.475-0.379v-0.44
		c0-0.254-0.14-0.469-0.416-0.645c-0.27-0.178-0.602-0.266-0.991-0.266c-0.369,0-0.688,0.085-0.957,0.253
		c-0.263,0.177-0.392,0.387-0.392,0.623v0.253h-0.438v-0.299c0-0.33,0.172-0.61,0.518-0.841c0.355-0.231,0.777-0.348,1.271-0.348
		c0.508,0,0.94,0.111,1.303,0.334c0.359,0.224,0.541,0.493,0.541,0.808v2.973c0,0.193,0.043,0.358,0.127,0.496
		c0.084,0.14,0.189,0.208,0.313,0.208c0.037,0,0.072-0.003,0.103-0.013c0.031-0.007,0.055-0.018,0.07-0.033v0.219
		c-0.115,0.055-0.263,0.08-0.438,0.08c-0.178,0-0.332-0.075-0.461-0.228c-0.123-0.154-0.186-0.34-0.186-0.555
		c-0.093,0.263-0.289,0.472-0.59,0.635c-0.298,0.162-0.646,0.242-1.035,0.242C59.217,20.835,58.806,20.701,58.467,20.431
		 M60.785,20.086c0.313-0.261,0.508-0.596,0.575-1.002v-1.131c-0.108,0.093-0.304,0.171-0.588,0.23
		c-0.27,0.063-0.627,0.11-1.071,0.149c-0.361,0.031-0.666,0.155-0.91,0.369c-0.248,0.207-0.369,0.456-0.369,0.739
		c0,0.292,0.125,0.539,0.379,0.736c0.246,0.209,0.545,0.312,0.9,0.312C60.107,20.489,60.471,20.355,60.785,20.086"/>
	<path fill="#575554" d="M58.467,20.431c-0.346-0.274-0.518-0.605-0.518-0.99c0-0.37,0.168-0.692,0.506-0.969
		c0.33-0.276,0.746-0.438,1.246-0.484c0.483-0.046,0.881-0.123,1.188-0.23c0.316-0.107,0.475-0.235,0.475-0.379v-0.44
		c0-0.254-0.14-0.469-0.416-0.645c-0.27-0.178-0.602-0.266-0.991-0.266c-0.369,0-0.688,0.085-0.957,0.253
		c-0.263,0.177-0.392,0.387-0.392,0.623v0.253h-0.438v-0.299c0-0.33,0.172-0.61,0.518-0.841c0.355-0.231,0.777-0.348,1.271-0.348
		c0.508,0,0.94,0.111,1.303,0.334c0.359,0.224,0.541,0.493,0.541,0.808v2.973c0,0.193,0.043,0.358,0.127,0.496
		c0.084,0.14,0.189,0.208,0.313,0.208c0.037,0,0.072-0.003,0.103-0.013c0.031-0.007,0.055-0.018,0.07-0.033v0.219
		c-0.115,0.055-0.263,0.08-0.438,0.08c-0.178,0-0.332-0.075-0.461-0.228c-0.123-0.154-0.186-0.34-0.186-0.555
		c-0.093,0.263-0.289,0.472-0.59,0.635c-0.298,0.162-0.646,0.242-1.035,0.242C59.217,20.835,58.806,20.701,58.467,20.431z
		 M60.785,20.086c0.313-0.261,0.508-0.596,0.575-1.002v-1.131c-0.108,0.093-0.304,0.171-0.588,0.23
		c-0.27,0.063-0.627,0.11-1.071,0.149c-0.361,0.031-0.666,0.155-0.91,0.369c-0.248,0.207-0.369,0.456-0.369,0.739
		c0,0.292,0.125,0.539,0.379,0.736c0.246,0.209,0.545,0.312,0.9,0.312C60.107,20.489,60.471,20.355,60.785,20.086z"/>
	<path fill="#575554" d="M63.449,20.326c-0.369-0.305-0.556-0.677-0.556-1.116h0.428c0,0.331,0.142,0.614,0.427,0.853
		c0.282,0.229,0.625,0.346,1.024,0.346c0.461,0,0.834-0.104,1.119-0.312c0.275-0.216,0.415-0.495,0.415-0.841
		c0-0.263-0.146-0.485-0.438-0.67c-0.291-0.177-0.687-0.287-1.177-0.334c-0.522-0.045-0.938-0.191-1.243-0.437
		c-0.316-0.246-0.476-0.55-0.476-0.911c0-0.407,0.158-0.723,0.476-0.946c0.313-0.222,0.756-0.334,1.323-0.334
		c0.545,0,0.98,0.12,1.304,0.358c0.33,0.237,0.495,0.556,0.495,0.956h-0.438c-0.055-0.301-0.199-0.534-0.438-0.703
		c-0.238-0.169-0.547-0.254-0.924-0.254c-0.414,0-0.746,0.085-0.992,0.254c-0.245,0.169-0.366,0.392-0.366,0.669
		c0,0.261,0.147,0.484,0.446,0.668c0.292,0.177,0.687,0.29,1.179,0.334c0.514,0.047,0.93,0.2,1.244,0.462
		c0.309,0.262,0.461,0.589,0.461,0.98c0,0.437-0.181,0.787-0.541,1.048c-0.354,0.263-0.83,0.393-1.431,0.393
		C64.252,20.79,63.811,20.635,63.449,20.326"/>
	<path fill="#575554" d="M63.449,20.326c-0.369-0.305-0.556-0.677-0.556-1.116h0.428c0,0.331,0.142,0.614,0.427,0.853
		c0.282,0.229,0.625,0.346,1.024,0.346c0.461,0,0.834-0.104,1.119-0.312c0.275-0.216,0.415-0.495,0.415-0.841
		c0-0.263-0.146-0.485-0.438-0.67c-0.291-0.177-0.687-0.287-1.177-0.334c-0.522-0.045-0.938-0.191-1.243-0.437
		c-0.316-0.246-0.476-0.55-0.476-0.911c0-0.407,0.158-0.723,0.476-0.946c0.313-0.222,0.756-0.334,1.323-0.334
		c0.545,0,0.98,0.12,1.304,0.358c0.33,0.237,0.495,0.556,0.495,0.956h-0.438c-0.055-0.301-0.199-0.534-0.438-0.703
		c-0.238-0.169-0.547-0.254-0.924-0.254c-0.414,0-0.746,0.085-0.992,0.254c-0.245,0.169-0.366,0.392-0.366,0.669
		c0,0.261,0.147,0.484,0.446,0.668c0.292,0.177,0.687,0.29,1.179,0.334c0.514,0.047,0.93,0.2,1.244,0.462
		c0.309,0.262,0.461,0.589,0.461,0.98c0,0.437-0.181,0.787-0.541,1.048c-0.354,0.263-0.83,0.393-1.431,0.393
		C64.252,20.79,63.811,20.635,63.449,20.326z"/>
	<path fill="#575554" d="M68.129,20.523c-0.178-0.199-0.267-0.445-0.267-0.737v-3.678H67.16v-0.357h0.702v-1.395h0.464v1.395h0.668
		v0.357h-0.668v3.678c0,0.193,0.047,0.357,0.146,0.496c0.093,0.139,0.207,0.207,0.347,0.207c0.146,0,0.267-0.027,0.357-0.08v0.335
		c-0.17,0.062-0.301,0.091-0.393,0.091C68.531,20.835,68.314,20.731,68.129,20.523"/>
	<path fill="#575554" d="M68.129,20.523c-0.178-0.199-0.267-0.445-0.267-0.737v-3.678H67.16v-0.357h0.702v-1.395h0.464v1.395h0.668
		v0.357h-0.668v3.678c0,0.193,0.047,0.357,0.146,0.496c0.093,0.139,0.207,0.207,0.347,0.207c0.146,0,0.267-0.027,0.357-0.08v0.335
		c-0.17,0.062-0.301,0.091-0.393,0.091C68.531,20.835,68.314,20.731,68.129,20.523z"/>
	<path fill="#575554" d="M70.297,20.121c-0.4-0.485-0.603-1.121-0.603-1.915c0-0.791,0.201-1.429,0.603-1.913
		c0.397-0.477,0.93-0.716,1.588-0.716c0.662,0,1.193,0.219,1.592,0.657c0.4,0.438,0.603,1.022,0.603,1.752v0.219h-3.92
		c0,0.669,0.155,1.203,0.473,1.603c0.313,0.398,0.734,0.6,1.256,0.6c0.393,0,0.746-0.104,1.062-0.312
		c0.323-0.216,0.547-0.495,0.67-0.841h0.461c-0.076,0.452-0.322,0.829-0.736,1.128c-0.416,0.299-0.9,0.449-1.455,0.449
		C71.227,20.835,70.695,20.598,70.297,20.121 M73.617,17.769v-0.171c-0.039-0.455-0.224-0.838-0.554-1.154
		c-0.341-0.308-0.729-0.462-1.178-0.462c-0.445,0-0.834,0.159-1.164,0.475c-0.338,0.322-0.527,0.718-0.563,1.188v0.125
		L73.617,17.769L73.617,17.769z"/>
	<path fill="#575554" d="M70.297,20.121c-0.4-0.485-0.603-1.121-0.603-1.915c0-0.791,0.201-1.429,0.603-1.913
		c0.397-0.477,0.93-0.716,1.588-0.716c0.662,0,1.193,0.219,1.592,0.657c0.4,0.438,0.603,1.022,0.603,1.752v0.219h-3.92
		c0,0.669,0.155,1.203,0.473,1.603c0.313,0.398,0.734,0.6,1.256,0.6c0.393,0,0.746-0.104,1.062-0.312
		c0.323-0.216,0.547-0.495,0.67-0.841h0.461c-0.076,0.452-0.322,0.829-0.736,1.128c-0.416,0.299-0.9,0.449-1.455,0.449
		C71.227,20.835,70.695,20.598,70.297,20.121z M73.617,17.769v-0.171c-0.039-0.455-0.224-0.838-0.554-1.154
		c-0.341-0.308-0.729-0.462-1.178-0.462c-0.445,0-0.834,0.159-1.164,0.475c-0.338,0.322-0.527,0.718-0.563,1.188v0.125
		L73.617,17.769L73.617,17.769z"/>
	<path fill="#575554" d="M75.16,20.662v-4.911h0.463v1.107c0.131-0.354,0.321-0.642,0.573-0.865
		c0.265-0.215,0.539-0.323,0.831-0.323h0.268v0.531c-0.025,0-0.051-0.008-0.082-0.024c-0.021-0.015-0.037-0.023-0.047-0.023
		c-0.36,0-0.687,0.155-0.979,0.461c-0.293,0.308-0.479,0.696-0.565,1.165v2.882H75.16L75.16,20.662z"/>
	<path fill="#575554" d="M75.16,20.662v-4.911h0.463v1.107c0.131-0.354,0.321-0.642,0.573-0.865
		c0.265-0.215,0.539-0.323,0.831-0.323h0.268v0.531c-0.025,0-0.051-0.008-0.082-0.024c-0.021-0.015-0.037-0.023-0.047-0.023
		c-0.36,0-0.687,0.155-0.979,0.461c-0.293,0.308-0.479,0.696-0.565,1.165v2.882H75.16L75.16,20.662z"/>
	<path fill="#575554" d="M82.252,19.786c-0.553-0.638-0.83-1.483-0.83-2.536c0-1.093,0.277-1.964,0.83-2.618
		c0.553-0.654,1.291-0.98,2.213-0.98c0.924,0,1.66,0.327,2.215,0.98c0.553,0.653,0.83,1.524,0.83,2.618
		c0,1.052-0.277,1.898-0.83,2.536c-0.555,0.639-1.291,0.957-2.215,0.957C83.543,20.743,82.805,20.425,82.252,19.786 M86.344,19.475
		c0.469-0.553,0.703-1.293,0.703-2.224c0-0.954-0.234-1.718-0.703-2.294c-0.469-0.575-1.094-0.865-1.879-0.865
		c-0.784,0-1.41,0.29-1.879,0.865c-0.469,0.576-0.703,1.341-0.703,2.294c0,0.93,0.234,1.671,0.703,2.224
		c0.469,0.563,1.095,0.842,1.879,0.842C85.25,20.317,85.875,20.037,86.344,19.475"/>
	<path fill="#575554" d="M82.252,19.786c-0.553-0.638-0.83-1.483-0.83-2.536c0-1.093,0.277-1.964,0.83-2.618
		c0.553-0.654,1.291-0.98,2.213-0.98c0.924,0,1.66,0.327,2.215,0.98c0.553,0.653,0.83,1.524,0.83,2.618
		c0,1.052-0.277,1.898-0.83,2.536c-0.555,0.639-1.291,0.957-2.215,0.957C83.543,20.743,82.805,20.425,82.252,19.786z M86.344,19.475
		c0.469-0.553,0.703-1.293,0.703-2.224c0-0.954-0.234-1.718-0.703-2.294c-0.469-0.575-1.094-0.865-1.879-0.865
		c-0.784,0-1.41,0.29-1.879,0.865c-0.469,0.576-0.703,1.341-0.703,2.294c0,0.93,0.234,1.671,0.703,2.224
		c0.469,0.563,1.095,0.842,1.879,0.842C85.25,20.317,85.875,20.037,86.344,19.475z"/>
	<path fill="#575554" d="M88.615,20.662v-4.911h0.461v1.107c0.131-0.354,0.323-0.642,0.575-0.865
		c0.263-0.215,0.539-0.323,0.832-0.323h0.265v0.531c-0.023,0-0.049-0.008-0.08-0.024c-0.023-0.015-0.039-0.023-0.047-0.023
		c-0.361,0-0.688,0.155-0.979,0.461c-0.293,0.308-0.48,0.696-0.564,1.165v2.882H88.615L88.615,20.662z"/>
	<path fill="#575554" d="M88.615,20.662v-4.911h0.461v1.107c0.131-0.354,0.323-0.642,0.575-0.865
		c0.263-0.215,0.539-0.323,0.832-0.323h0.265v0.531c-0.023,0-0.049-0.008-0.08-0.024c-0.023-0.015-0.039-0.023-0.047-0.023
		c-0.361,0-0.688,0.155-0.979,0.461c-0.293,0.308-0.48,0.696-0.564,1.165v2.882H88.615L88.615,20.662z"/>
	<path fill="#575554" d="M91.556,13.826h0.46v0.703h-0.46V13.826z M91.556,15.751h0.46v4.911h-0.46V15.751z"/>
	<path fill="#575554" d="M91.556,13.826h0.46v0.703h-0.46V13.826z M91.556,15.751h0.46v4.911h-0.46V15.751z"/>
	<path fill="#575554" d="M93.814,21.954c-0.414-0.316-0.623-0.693-0.623-1.131h0.439c0,0.331,0.162,0.614,0.483,0.854
		c0.33,0.229,0.726,0.346,1.188,0.346c0.508,0,0.912-0.134,1.211-0.403c0.307-0.27,0.459-0.631,0.459-1.085v-1.001
		c-0.145,0.322-0.367,0.575-0.668,0.759c-0.307,0.193-0.637,0.29-0.992,0.29c-0.645,0-1.16-0.226-1.543-0.681
		c-0.395-0.459-0.589-1.068-0.589-1.82c0-0.755,0.194-1.361,0.589-1.822c0.383-0.453,0.898-0.679,1.543-0.679
		c0.377,0,0.722,0.099,1.027,0.298c0.299,0.2,0.511,0.465,0.633,0.796v-0.921h0.463v4.796c0,0.591-0.188,1.049-0.563,1.371
		c-0.369,0.331-0.894,0.497-1.568,0.497C94.719,22.416,94.223,22.26,93.814,21.954 M96.49,19.603
		c0.321-0.422,0.481-0.93,0.481-1.523c0-0.591-0.16-1.097-0.481-1.521c-0.322-0.416-0.716-0.623-1.177-0.623
		c-0.507,0-0.911,0.197-1.211,0.589c-0.307,0.391-0.461,0.91-0.461,1.554c0,0.646,0.154,1.165,0.461,1.559
		c0.3,0.392,0.704,0.588,1.211,0.588C95.775,20.226,96.168,20.018,96.49,19.603"/>
	<path fill="#575554" d="M93.814,21.954c-0.414-0.316-0.623-0.693-0.623-1.131h0.439c0,0.331,0.162,0.614,0.483,0.854
		c0.33,0.229,0.726,0.346,1.188,0.346c0.508,0,0.912-0.134,1.211-0.403c0.307-0.27,0.459-0.631,0.459-1.085v-1.001
		c-0.145,0.322-0.367,0.575-0.668,0.759c-0.307,0.193-0.637,0.29-0.992,0.29c-0.645,0-1.16-0.226-1.543-0.681
		c-0.395-0.459-0.589-1.068-0.589-1.82c0-0.755,0.194-1.361,0.589-1.822c0.383-0.453,0.898-0.679,1.543-0.679
		c0.377,0,0.722,0.099,1.027,0.298c0.299,0.2,0.511,0.465,0.633,0.796v-0.921h0.463v4.796c0,0.591-0.188,1.049-0.563,1.371
		c-0.369,0.331-0.894,0.497-1.568,0.497C94.719,22.416,94.223,22.26,93.814,21.954z M96.49,19.603
		c0.321-0.422,0.481-0.93,0.481-1.523c0-0.591-0.16-1.097-0.481-1.521c-0.322-0.416-0.716-0.623-1.177-0.623
		c-0.507,0-0.911,0.197-1.211,0.589c-0.307,0.391-0.461,0.91-0.461,1.554c0,0.646,0.154,1.165,0.461,1.559
		c0.3,0.392,0.704,0.588,1.211,0.588C95.775,20.226,96.168,20.018,96.49,19.603z"/>
	<path fill="#575554" d="M98.91,13.826h0.463v0.703H98.91V13.826z M98.91,15.751h0.463v4.911H98.91V15.751z"/>
	<path fill="#575554" d="M98.91,13.826h0.463v0.703H98.91V13.826z M98.91,15.751h0.463v4.911H98.91V15.751z"/>
	<path fill="#575554" d="M100.848,20.662v-4.911h0.463v0.83c0.138-0.291,0.349-0.521,0.633-0.691
		c0.285-0.176,0.601-0.266,0.946-0.266c0.483,0,0.896,0.157,1.233,0.474c0.346,0.323,0.518,0.708,0.518,1.153v3.412h-0.461V17.25
		c0-0.338-0.127-0.626-0.381-0.865c-0.254-0.238-0.557-0.357-0.909-0.357c-0.386,0-0.728,0.129-1.026,0.391
		c-0.301,0.269-0.483,0.603-0.553,1.004v3.239H100.848L100.848,20.662z"/>
	<path fill="#575554" d="M100.848,20.662v-4.911h0.463v0.83c0.138-0.291,0.349-0.521,0.633-0.691
		c0.285-0.176,0.601-0.266,0.946-0.266c0.483,0,0.896,0.157,1.233,0.474c0.346,0.323,0.518,0.708,0.518,1.153v3.412h-0.461V17.25
		c0-0.338-0.127-0.626-0.381-0.865c-0.254-0.238-0.557-0.357-0.909-0.357c-0.386,0-0.728,0.129-1.026,0.391
		c-0.301,0.269-0.483,0.603-0.553,1.004v3.239H100.848L100.848,20.662z"/>
	<path fill="#575554" d="M106.152,20.431c-0.347-0.274-0.52-0.605-0.52-0.99c0-0.37,0.17-0.692,0.507-0.969
		c0.331-0.276,0.745-0.438,1.245-0.484c0.484-0.046,0.88-0.123,1.189-0.23c0.313-0.107,0.471-0.235,0.471-0.379v-0.44
		c0-0.254-0.14-0.469-0.414-0.645c-0.271-0.178-0.601-0.266-0.992-0.266c-0.367,0-0.688,0.085-0.958,0.253
		c-0.261,0.177-0.39,0.387-0.39,0.623v0.253h-0.44v-0.299c0-0.33,0.175-0.61,0.521-0.841c0.353-0.231,0.774-0.348,1.268-0.348
		c0.508,0,0.941,0.111,1.305,0.334c0.359,0.224,0.541,0.493,0.541,0.808v2.973c0,0.193,0.043,0.358,0.127,0.496
		c0.084,0.14,0.188,0.208,0.312,0.208c0.039,0,0.072-0.003,0.104-0.013c0.031-0.007,0.054-0.018,0.07-0.033v0.219
		c-0.115,0.055-0.262,0.08-0.438,0.08c-0.178,0-0.33-0.075-0.462-0.228c-0.122-0.154-0.184-0.34-0.184-0.555
		c-0.092,0.263-0.289,0.472-0.59,0.635c-0.299,0.162-0.646,0.242-1.037,0.242C106.9,20.835,106.49,20.701,106.152,20.431
		 M108.471,20.086c0.313-0.261,0.505-0.596,0.574-1.002v-1.131c-0.107,0.093-0.303,0.171-0.588,0.23
		c-0.271,0.063-0.627,0.11-1.072,0.149c-0.361,0.031-0.666,0.155-0.911,0.369c-0.245,0.207-0.368,0.456-0.368,0.739
		c0,0.292,0.127,0.539,0.379,0.736c0.246,0.209,0.548,0.312,0.9,0.312C107.793,20.489,108.152,20.355,108.471,20.086"/>
	<path fill="#575554" d="M106.152,20.431c-0.347-0.274-0.52-0.605-0.52-0.99c0-0.37,0.17-0.692,0.507-0.969
		c0.331-0.276,0.745-0.438,1.245-0.484c0.484-0.046,0.88-0.123,1.189-0.23c0.313-0.107,0.471-0.235,0.471-0.379v-0.44
		c0-0.254-0.14-0.469-0.414-0.645c-0.271-0.178-0.601-0.266-0.992-0.266c-0.367,0-0.688,0.085-0.958,0.253
		c-0.261,0.177-0.39,0.387-0.39,0.623v0.253h-0.44v-0.299c0-0.33,0.175-0.61,0.521-0.841c0.353-0.231,0.774-0.348,1.268-0.348
		c0.508,0,0.941,0.111,1.305,0.334c0.359,0.224,0.541,0.493,0.541,0.808v2.973c0,0.193,0.043,0.358,0.127,0.496
		c0.084,0.14,0.188,0.208,0.312,0.208c0.039,0,0.072-0.003,0.104-0.013c0.031-0.007,0.054-0.018,0.07-0.033v0.219
		c-0.115,0.055-0.262,0.08-0.438,0.08c-0.178,0-0.33-0.075-0.462-0.228c-0.122-0.154-0.184-0.34-0.184-0.555
		c-0.092,0.263-0.289,0.472-0.59,0.635c-0.299,0.162-0.646,0.242-1.037,0.242C106.9,20.835,106.49,20.701,106.152,20.431z
		 M108.471,20.086c0.313-0.261,0.505-0.596,0.574-1.002v-1.131c-0.107,0.093-0.303,0.171-0.588,0.23
		c-0.271,0.063-0.627,0.11-1.072,0.149c-0.361,0.031-0.666,0.155-0.911,0.369c-0.245,0.207-0.368,0.456-0.368,0.739
		c0,0.292,0.127,0.539,0.379,0.736c0.246,0.209,0.548,0.312,0.9,0.312C107.793,20.489,108.152,20.355,108.471,20.086z"/>
	<rect x="110.982" y="13.826" fill="#575554" width="0.461" height="6.836"/>
	<rect x="110.982" y="13.826" fill="#575554" width="0.461" height="6.836"/>
	<polygon fill="#575554" points="116.607,20.662 116.607,13.826 117.334,13.826 119.838,20.086 122.326,13.826 123.053,13.826 
		123.053,20.662 122.594,20.662 122.594,14.355 120.043,20.662 119.617,20.662 117.07,14.355 117.07,20.662 	"/>
	<polygon fill="#575554" points="116.607,20.662 116.607,13.826 117.334,13.826 119.838,20.086 122.326,13.826 123.053,13.826 
		123.053,20.662 122.594,20.662 122.594,14.355 120.043,20.662 119.617,20.662 117.07,14.355 117.07,20.662 	"/>
	<path fill="#575554" d="M124.852,20.051c-0.424-0.461-0.635-1.075-0.635-1.844c0-0.791,0.211-1.429,0.635-1.913
		c0.413-0.477,0.972-0.716,1.67-0.716c0.693,0,1.25,0.239,1.674,0.716c0.414,0.484,0.621,1.122,0.621,1.913
		c0,0.769-0.207,1.383-0.621,1.844c-0.424,0.463-0.979,0.692-1.674,0.692C125.824,20.744,125.265,20.514,124.852,20.051
		 M127.861,19.774c0.33-0.391,0.494-0.914,0.494-1.568c0-0.676-0.164-1.213-0.494-1.614c-0.34-0.408-0.784-0.612-1.338-0.612
		c-0.563,0-1.008,0.204-1.338,0.612c-0.338,0.4-0.508,0.938-0.508,1.614c0,0.654,0.17,1.177,0.508,1.568
		c0.33,0.394,0.775,0.588,1.338,0.588C127.076,20.362,127.521,20.168,127.861,19.774"/>
	<path fill="#575554" d="M124.852,20.051c-0.424-0.461-0.635-1.075-0.635-1.844c0-0.791,0.211-1.429,0.635-1.913
		c0.413-0.477,0.972-0.716,1.67-0.716c0.693,0,1.25,0.239,1.674,0.716c0.414,0.484,0.621,1.122,0.621,1.913
		c0,0.769-0.207,1.383-0.621,1.844c-0.424,0.463-0.979,0.692-1.674,0.692C125.824,20.744,125.265,20.514,124.852,20.051z
		 M127.861,19.774c0.33-0.391,0.494-0.914,0.494-1.568c0-0.676-0.164-1.213-0.494-1.614c-0.34-0.408-0.784-0.612-1.338-0.612
		c-0.563,0-1.008,0.204-1.338,0.612c-0.338,0.4-0.508,0.938-0.508,1.614c0,0.654,0.17,1.177,0.508,1.568
		c0.33,0.394,0.775,0.588,1.338,0.588C127.076,20.362,127.521,20.168,127.861,19.774z"/>
	<path fill="#575554" d="M130.281,20.028c-0.425-0.499-0.636-1.106-0.636-1.82c0-0.722,0.211-1.342,0.636-1.857
		c0.424-0.514,0.93-0.772,1.522-0.772c0.375,0,0.721,0.111,1.037,0.335c0.305,0.229,0.529,0.53,0.668,0.899v-2.986h0.461v6.836
		h-0.461V19.66c-0.123,0.338-0.342,0.61-0.658,0.818c-0.307,0.207-0.656,0.311-1.047,0.311
		C131.211,20.789,130.705,20.535,130.281,20.028 M133.014,19.786c0.332-0.438,0.496-0.965,0.496-1.578
		c0-0.615-0.164-1.138-0.496-1.569c-0.338-0.438-0.742-0.658-1.209-0.658c-0.471,0-0.869,0.22-1.201,0.658
		c-0.328,0.431-0.496,0.954-0.496,1.569c0,0.613,0.168,1.142,0.496,1.578c0.332,0.439,0.73,0.657,1.201,0.657
		C132.271,20.443,132.676,20.224,133.014,19.786"/>
	<path fill="#575554" d="M130.281,20.028c-0.425-0.499-0.636-1.106-0.636-1.82c0-0.722,0.211-1.342,0.636-1.857
		c0.424-0.514,0.93-0.772,1.522-0.772c0.375,0,0.721,0.111,1.037,0.335c0.305,0.229,0.529,0.53,0.668,0.899v-2.986h0.461v6.836
		h-0.461V19.66c-0.123,0.338-0.342,0.61-0.658,0.818c-0.307,0.207-0.656,0.311-1.047,0.311
		C131.211,20.789,130.705,20.535,130.281,20.028z M133.014,19.786c0.332-0.438,0.496-0.965,0.496-1.578
		c0-0.615-0.164-1.138-0.496-1.569c-0.338-0.438-0.742-0.658-1.209-0.658c-0.471,0-0.869,0.22-1.201,0.658
		c-0.328,0.431-0.496,0.954-0.496,1.569c0,0.613,0.168,1.142,0.496,1.578c0.332,0.439,0.73,0.657,1.201,0.657
		C132.271,20.443,132.676,20.224,133.014,19.786z"/>
	<path fill="#575554" d="M135.746,20.121c-0.398-0.485-0.601-1.121-0.601-1.915c0-0.791,0.201-1.429,0.601-1.913
		c0.397-0.477,0.93-0.716,1.59-0.716c0.662,0,1.19,0.219,1.592,0.657s0.6,1.022,0.6,1.752v0.219h-3.92
		c0,0.669,0.157,1.203,0.474,1.603c0.313,0.398,0.733,0.6,1.256,0.6c0.393,0,0.744-0.104,1.063-0.312
		c0.322-0.216,0.543-0.495,0.668-0.841h0.462c-0.076,0.452-0.322,0.829-0.738,1.128c-0.414,0.299-0.899,0.449-1.453,0.449
		C136.676,20.835,136.145,20.598,135.746,20.121 M139.066,17.769v-0.171c-0.039-0.455-0.223-0.838-0.553-1.154
		c-0.34-0.308-0.729-0.462-1.178-0.462c-0.445,0-0.832,0.159-1.162,0.475c-0.34,0.322-0.527,0.718-0.566,1.188v0.125L139.066,17.769
		L139.066,17.769z"/>
	<path fill="#575554" d="M135.746,20.121c-0.398-0.485-0.601-1.121-0.601-1.915c0-0.791,0.201-1.429,0.601-1.913
		c0.397-0.477,0.93-0.716,1.59-0.716c0.662,0,1.19,0.219,1.592,0.657s0.6,1.022,0.6,1.752v0.219h-3.92
		c0,0.669,0.157,1.203,0.474,1.603c0.313,0.398,0.733,0.6,1.256,0.6c0.393,0,0.744-0.104,1.063-0.312
		c0.322-0.216,0.543-0.495,0.668-0.841h0.462c-0.076,0.452-0.322,0.829-0.738,1.128c-0.414,0.299-0.899,0.449-1.453,0.449
		C136.676,20.835,136.145,20.598,135.746,20.121z M139.066,17.769v-0.171c-0.039-0.455-0.223-0.838-0.553-1.154
		c-0.34-0.308-0.729-0.462-1.178-0.462c-0.445,0-0.832,0.159-1.162,0.475c-0.34,0.322-0.527,0.718-0.566,1.188v0.125L139.066,17.769
		L139.066,17.769z"/>
	<rect x="140.613" y="13.826" fill="#575554" width="0.459" height="6.836"/>
	<rect x="140.613" y="13.826" fill="#575554" width="0.459" height="6.836"/>
	<path fill="#575554" d="M63.193,28.343v16.474H76.3c1.137-1.381,1.795-2.073,1.978-2.073c0.182,0,0.7,0.375,1.559,1.127
		c0.842,0.752,1.262,1.188,1.262,1.31c0,0.18-0.065,0.27-0.199,0.27H63.169v0.789c0,0.555-0.817,0.834-2.447,0.834
		c-0.645,0-0.967-0.158-0.967-0.475c0.082-3.109,0.125-5.257,0.125-6.445V31.16c0-1.878-0.084-3.336-0.248-4.372
		c0.856,0.195,2.127,0.504,3.809,0.923h12.269c1.233-1.217,1.928-1.826,2.076-1.826c0.164,0,0.676,0.332,1.532,0.993
		c0.857,0.661,1.287,1.051,1.287,1.172c0,0.196-0.084,0.293-0.248,0.293H63.193L63.193,28.343z M75.582,28.522
		c0.051,0,0.604,0.354,1.658,1.06c1.069,0.706,1.606,1.134,1.606,1.282c0,0.197-0.125,0.295-0.372,0.295
		c-0.05,0-0.091-0.008-0.124-0.023c-0.442-0.089-0.731-0.135-0.864-0.135c-0.033,0-0.058,0.008-0.074,0.023
		c-2.638,0.631-5.474,0.945-8.506,0.945h-0.101v2.77h6.43c1.188-1.26,1.862-1.891,2.027-1.891c0.133,0,0.603,0.33,1.41,0.99
		c0.824,0.66,1.236,1.051,1.236,1.172c0,0.18-0.082,0.271-0.246,0.271h-4.625v4.416c0,0.242,0.032,1.393,0.1,3.447
		c0,0.467-0.809,0.699-2.424,0.699c-0.562,0-0.842-0.164-0.842-0.496V43.33c0.032-1.485,0.049-2.802,0.049-3.944v-4.101h-3.164
		v0.226c0,4.104-1.73,6.934-5.193,8.495l-0.271-0.271c1.563-1.877,2.349-4.479,2.349-7.797v-2.209c0-1.367-0.083-2.436-0.247-3.201
		c0.709,0.148,1.304,0.285,1.781,0.406c0.51,0.135,1.096,0.285,1.755,0.449c0.645-0.074,1.739-0.436,3.29-1.08
		C73.785,29.658,74.904,29.065,75.582,28.522"/>
	<path fill="#575554" d="M111.605,27.779c1.254-1.262,1.945-1.894,2.076-1.894c0.182,0,0.687,0.324,1.51,0.97
		c0.843,0.646,1.261,1.051,1.261,1.217c0,0.18-0.105,0.271-0.32,0.271h-6.529c-0.824,1.125-2.102,2.058-3.834,2.794h4.699
		c1.023-0.768,1.6-1.15,1.729-1.15c0.15,0,0.604,0.232,1.36,0.697c0.759,0.469,1.138,0.797,1.138,0.992
		c0,0.152-0.049,0.25-0.147,0.293c-0.459,0.271-0.691,0.528-0.691,0.768v2.005c0,0.211,0.033,1.438,0.099,3.676
		c0,0.511-0.767,0.767-2.3,0.767c-0.643,0-0.965-0.136-0.965-0.406v-0.631h-1.582v6.311c0,0.826-0.444,1.458-1.336,1.895
		c-0.873,0.449-1.573,0.676-2.102,0.676c-0.297,0-0.463-0.205-0.494-0.607c-0.084-0.646-0.264-1.119-0.545-1.42
		c-0.266-0.314-0.883-0.57-1.855-0.768l0.05-0.405c0.842,0.075,1.641,0.112,2.399,0.112h0.271c0.33,0,0.496-0.18,0.496-0.541v-5.252
		h-1.83v0.248c0,0.496-0.802,0.744-2.398,0.744c-0.578,0-0.867-0.143-0.867-0.43c0.082-2.057,0.125-3.207,0.125-3.447V33.8
		c0-1.459-0.059-2.674-0.174-3.652c0.726,0.195,1.344,0.367,1.854,0.521c0.512,0.147,1.063,0.31,1.657,0.474h0.791
		c0.28-0.947,0.423-1.879,0.423-2.795H99.19v6.266c0,4.146-0.469,7.016-1.407,8.607c-0.941,1.608-2.244,2.842-3.908,3.697
		l-0.274-0.25c1.551-1.729,2.326-5.688,2.326-11.878v-3.584c0-2.088-0.059-3.582-0.174-4.485c0.692,0.166,1.328,0.332,1.903,0.498
		c0.578,0.18,1.181,0.353,1.808,0.518L111.605,27.779z M97.436,45.494l-0.199-0.203c2.193-1.683,3.693-3.666,4.502-5.949
		c2.425,0.916,3.638,1.488,3.638,1.712c0,0.166-0.274,0.258-0.818,0.27c-0.197,0.017-0.305,0.031-0.32,0.046
		C102.637,43.278,100.369,44.651,97.436,45.494 M110.74,31.746h-6.554v2.455h6.554V31.746z M110.74,34.742h-6.554v2.862h6.554
		V34.742z M109.875,40.175l0.172-0.271c1.565,0.197,3,0.623,4.303,1.285s1.955,1.442,1.955,2.342c0,1.068-0.496,1.603-1.484,1.603
		c-0.512,0-1.063-0.571-1.655-1.713C112.338,41.917,111.242,40.835,109.875,40.175"/>
	<path fill="#575554" d="M127.309,28.116c-0.725,0.933-1.311,1.592-1.756,1.984c1.912,0.062,2.869,0.654,2.869,1.781
		c0,0.898-0.553,1.352-1.657,1.352c-0.642,0-0.98-0.346-1.015-1.037c-0.017-1.082-0.23-1.623-0.644-1.623
		c-0.905,0.855-1.961,1.607-3.166,2.255l2.228,0.653h4.799c0.824-0.631,1.285-0.947,1.384-0.947c0.134,0,0.544,0.218,1.237,0.654
		c0.69,0.42,1.039,0.729,1.039,0.924c0,0.104-0.049,0.195-0.148,0.271c-0.362,0.271-0.545,0.45-0.545,0.543v1.803
		c0,0.24,0.041,1.147,0.124,2.727c0,0.449-0.718,0.676-2.15,0.676c-0.529,0-0.794-0.143-0.794-0.43v-0.314h-5.217
		c-0.033,0.557-0.117,1.021-0.246,1.398c0.511,0.119,1.285,0.314,2.323,0.584h3.19c0.822-0.676,1.295-1.014,1.41-1.014
		c0.162,0,0.608,0.203,1.336,0.607c0.725,0.393,1.086,0.686,1.086,0.881c0,0.119-0.058,0.217-0.172,0.291
		c-0.363,0.258-0.546,0.438-0.546,0.541v1.487c0,0.166,0.011,0.563,0.025,1.194c0.018,0.33,0.031,0.609,0.049,0.832
		c0,0.451-0.758,0.679-2.272,0.679c-0.48,0-0.72-0.144-0.72-0.429v-0.879h-3.512v0.856c0,0.419-0.71,0.63-2.127,0.63
		c-0.576,0-0.865-0.127-0.865-0.382c0.052-0.962,0.073-1.668,0.073-2.119v-1.759c-0.956,2.014-2.25,3.328-3.882,3.943l-0.223-0.224
		c1.436-1.594,2.151-4.885,2.151-9.874c0-1.472-0.051-2.591-0.149-3.357c-0.707,0.301-1.326,0.504-1.854,0.607l-0.146-0.313
		c1.436-0.887,2.67-2.111,3.711-3.674c1.053-1.547,1.688-2.886,1.901-4.013c2.854,0.721,4.279,1.181,4.279,1.375
		c0,0.286-0.338,0.429-1.014,0.429c1.235,0.121,2.432,0.474,3.586,1.061c1.137,0.584,1.705,1.27,1.705,2.049
		c0,1.021-0.525,1.533-1.582,1.533c-0.66,0-1.195-0.467-1.607-1.396c-0.33-0.766-0.793-1.428-1.385-1.983
		C127.828,28.396,127.457,28.116,127.309,28.116 M129.139,36.612h-5.145v1.104c0,0.421-0.009,0.774-0.023,1.062h5.168V36.612z
		 M129.139,34.022h-5.145v2.027h5.145V34.022z M129.41,41.933h-3.513v3.109h3.513V41.933z M133.64,31.701
		c0-1.772-0.064-3.049-0.196-3.832c2.507,0.391,3.759,0.7,3.759,0.925c0,0.12-0.066,0.202-0.197,0.247
		c-0.396,0.181-0.594,0.3-0.594,0.36v7.73c0,0.377,0.041,1.676,0.125,3.898c0,0.422-0.701,0.631-2.104,0.631
		c-0.593,0-0.888-0.143-0.888-0.428v-0.022c0.063-1.907,0.098-3.417,0.098-4.53L133.64,31.701L133.64,31.701z M140.961,44.118
		c0,1.488-1.006,2.438-3.021,2.841h-0.021c-0.185,0.045-0.332,0.067-0.446,0.067c-0.28,0-0.445-0.112-0.495-0.34
		c-0.133-0.885-0.305-1.479-0.52-1.778c-0.23-0.313-1.006-0.615-2.324-0.902l0.098-0.45c1.039,0.075,2.097,0.114,3.166,0.114
		c0.33,0,0.496-0.159,0.496-0.476V29.853c0-1.773-0.065-3.042-0.199-3.81c2.689,0.376,4.031,0.676,4.031,0.903
		c0,0.121-0.074,0.203-0.223,0.248c-0.363,0.166-0.543,0.292-0.543,0.384V44.118L140.961,44.118z"/>
	<path fill="#575554" d="M28.75,50.142c-11.797,0-21.394-9.6-21.394-21.393c0-11.796,9.597-21.394,21.394-21.394
		c4.862,0,9.444,1.59,13.25,4.598l4.563-5.771C41.445,2.136,35.285,0,28.75,0C12.896,0,0,12.897,0,28.749
		c0,15.852,12.896,28.749,28.75,28.749c7.92,0,15.569-3.315,20.985-9.101l-5.37-5.028C40.275,47.737,34.729,50.142,28.75,50.142"/>
	<path fill="#575554" d="M50.096,25.07H17.465c0.688-2.126,1.966-4.018,3.731-5.472c2.444-2.014,5.523-2.954,8.679-2.648
		c2.365,0.228,4.578,1.144,6.397,2.65l4.688-5.671c-2.957-2.443-6.545-3.93-10.377-4.302c-5.104-0.491-10.103,1.03-14.063,4.291
		c-3.963,3.263-6.416,7.872-6.91,12.98c-0.886,9.154,4.863,17.681,13.675,20.276l2.08-7.06c-3.826-1.127-6.707-4.071-7.894-7.688
		H39.99c-1.343,4.09-4.845,7.234-9.201,7.998l1.271,7.248c7.857-1.379,14.012-7.523,15.523-15.246h2.512
		c0.209-1.195,0.318-2.424,0.318-3.678C50.414,27.494,50.305,26.266,50.096,25.07"/>
	<circle fill="#A11F24" cx="50.803" cy="42.145" r="3.192"/>
	<circle fill="#A11F24" cx="87.395" cy="37.29" r="3.191"/>
</g>
</svg>
