<?xml version="1.0" encoding="utf-8"?>
<!-- Generator: Adobe Illustrator 16.0.0, SVG Export Plug-In . SVG Version: 6.00 Build 0)  -->
<!DOCTYPE svg PUBLIC "-//W3C//DTD SVG 1.1//EN" "http://www.w3.org/Graphics/SVG/1.1/DTD/svg11.dtd">
<svg version="1.1" id="圖層_1" xmlns="http://www.w3.org/2000/svg" xmlns:xlink="http://www.w3.org/1999/xlink" x="0px" y="0px"
	 width="26.75px" height="26.75px" viewBox="0 0 26.75 26.75" enable-background="new 0 0 26.75 26.75" xml:space="preserve">
<path fill="#595757" d="M26.75,23.503c0,1.793-1.454,3.247-3.247,3.247H3.247C1.454,26.75,0,25.296,0,23.503V3.247
	C0,1.454,1.454,0,3.247,0h20.256c1.793,0,3.247,1.454,3.247,3.247V23.503z"/>
<path fill="#FFFFFF" d="M17.729,8.9c0.211-0.31,0.52-0.464,0.93-0.464h2.41V4.337h-2.494c-1.861,0-3.238,0.482-4.131,1.447
	c-0.894,0.965-1.341,2.418-1.341,4.362v1.588h-2.516v3.997h2.516V26.75h4.31V15.731h3.656v-3.997h-3.656v-1.63
	C17.413,9.611,17.517,9.21,17.729,8.9z"/>
</svg>
