<?xml version="1.0" encoding="utf-8"?>
<!-- Generator: Adobe Illustrator 16.0.0, SVG Export Plug-In . SVG Version: 6.00 Build 0)  -->
<!DOCTYPE svg PUBLIC "-//W3C//DTD SVG 1.1//EN" "http://www.w3.org/Graphics/SVG/1.1/DTD/svg11.dtd">
<svg version="1.1" id="圖層_1" xmlns="http://www.w3.org/2000/svg" xmlns:xlink="http://www.w3.org/1999/xlink" x="0px" y="0px"
	 width="374.606px" height="151.978px" viewBox="0 0 374.606 151.978" enable-background="new 0 0 374.606 151.978"
	 xml:space="preserve">
<g>
	<polygon points="133.298,54.617 133.298,36.546 135.218,36.546 141.831,53.093 148.413,36.546 150.333,36.546 150.333,54.617 
		149.114,54.617 149.114,37.948 142.379,54.617 141.252,54.617 134.518,37.948 134.518,54.617 	"/>
	<polygon fill="none" stroke="#000000" stroke-width="0.4833" stroke-miterlimit="10" points="133.298,54.617 133.298,36.546 
		135.218,36.546 141.831,53.093 148.413,36.546 150.333,36.546 150.333,54.617 149.114,54.617 149.114,37.948 142.379,54.617 
		141.252,54.617 134.518,37.948 134.518,54.617 	"/>
	<path d="M154.538,54.007c-0.914-0.73-1.371-1.604-1.371-2.62c0-0.976,0.446-1.829,1.34-2.56c0.874-0.731,1.971-1.158,3.292-1.28
		c1.28-0.122,2.326-0.324,3.139-0.609c0.832-0.284,1.25-0.62,1.25-1.005v-1.158c0-0.671-0.366-1.239-1.098-1.706
		c-0.711-0.467-1.584-0.702-2.621-0.702c-0.975,0-1.818,0.224-2.53,0.671c-0.69,0.467-1.035,1.016-1.035,1.645v0.671h-1.158v-0.793
		c0-0.873,0.458-1.615,1.371-2.224c0.934-0.61,2.051-0.915,3.352-0.915c1.341,0,2.488,0.294,3.443,0.883
		c0.954,0.59,1.432,1.301,1.432,2.133v7.862c0,0.508,0.112,0.945,0.335,1.311c0.223,0.365,0.497,0.547,0.823,0.547
		c0.101,0,0.193-0.009,0.274-0.03c0.082-0.02,0.142-0.05,0.183-0.091v0.579c-0.305,0.142-0.69,0.213-1.158,0.213
		c-0.467,0-0.874-0.203-1.219-0.608c-0.325-0.407-0.488-0.894-0.488-1.463c-0.244,0.691-0.762,1.249-1.555,1.676
		c-0.792,0.426-1.706,0.64-2.742,0.64C156.518,55.075,155.432,54.718,154.538,54.007 M160.663,53.093
		c0.833-0.69,1.341-1.573,1.524-2.651v-2.985c-0.286,0.243-0.804,0.446-1.555,0.609c-0.712,0.164-1.656,0.294-2.834,0.396
		c-0.955,0.082-1.758,0.406-2.408,0.975c-0.651,0.548-0.975,1.199-0.975,1.95c0,0.772,0.335,1.422,1.005,1.951
		c0.65,0.549,1.442,0.822,2.377,0.822C158.875,54.159,159.83,53.805,160.663,53.093"/>
	<path fill="none" stroke="#000000" stroke-width="0.4833" stroke-miterlimit="10" d="M154.538,54.007
		c-0.914-0.73-1.371-1.604-1.371-2.62c0-0.976,0.446-1.829,1.34-2.56c0.874-0.731,1.971-1.158,3.292-1.28
		c1.28-0.122,2.326-0.324,3.139-0.609c0.832-0.284,1.25-0.62,1.25-1.005v-1.158c0-0.671-0.366-1.239-1.098-1.706
		c-0.711-0.467-1.584-0.702-2.621-0.702c-0.975,0-1.818,0.224-2.53,0.671c-0.69,0.467-1.035,1.016-1.035,1.645v0.671h-1.158v-0.793
		c0-0.873,0.458-1.615,1.371-2.224c0.934-0.61,2.051-0.915,3.352-0.915c1.341,0,2.488,0.294,3.443,0.883
		c0.954,0.59,1.432,1.301,1.432,2.133v7.862c0,0.508,0.112,0.945,0.335,1.311c0.223,0.365,0.497,0.547,0.823,0.547
		c0.101,0,0.193-0.009,0.274-0.03c0.082-0.02,0.142-0.05,0.183-0.091v0.579c-0.305,0.142-0.69,0.213-1.158,0.213
		c-0.467,0-0.874-0.203-1.219-0.608c-0.325-0.407-0.488-0.894-0.488-1.463c-0.244,0.691-0.762,1.249-1.555,1.676
		c-0.792,0.426-1.706,0.64-2.742,0.64C156.518,55.075,155.432,54.718,154.538,54.007z M160.663,53.093
		c0.833-0.69,1.341-1.573,1.524-2.651v-2.985c-0.286,0.243-0.804,0.446-1.555,0.609c-0.712,0.164-1.656,0.294-2.834,0.396
		c-0.955,0.082-1.758,0.406-2.408,0.975c-0.651,0.548-0.975,1.199-0.975,1.95c0,0.772,0.335,1.422,1.005,1.951
		c0.65,0.549,1.442,0.822,2.377,0.822C158.875,54.159,159.83,53.805,160.663,53.093z"/>
	<path d="M167.703,53.733c-0.976-0.812-1.463-1.798-1.463-2.956h1.127c0,0.875,0.375,1.625,1.128,2.255
		c0.75,0.61,1.655,0.914,2.712,0.914c1.218,0,2.203-0.274,2.955-0.822c0.731-0.57,1.098-1.311,1.098-2.225
		c0-0.691-0.386-1.28-1.158-1.768c-0.772-0.466-1.81-0.762-3.109-0.883c-1.381-0.122-2.479-0.508-3.29-1.157
		c-0.833-0.651-1.25-1.453-1.25-2.409c0-1.076,0.417-1.91,1.25-2.499c0.833-0.589,2-0.884,3.504-0.884
		c1.441,0,2.59,0.316,3.443,0.945c0.873,0.629,1.311,1.473,1.311,2.529h-1.158c-0.143-0.792-0.528-1.412-1.158-1.858
		c-0.63-0.446-1.443-0.67-2.438-0.67c-1.098,0-1.972,0.224-2.622,0.67c-0.649,0.447-0.975,1.036-0.975,1.767
		c0,0.691,0.396,1.28,1.188,1.768c0.772,0.468,1.808,0.762,3.108,0.883c1.361,0.123,2.458,0.529,3.291,1.219
		c0.813,0.691,1.219,1.555,1.219,2.59c0,1.158-0.478,2.083-1.432,2.773c-0.935,0.691-2.193,1.037-3.778,1.037
		C169.824,54.953,168.656,54.546,167.703,53.733"/>
	<path fill="none" stroke="#000000" stroke-width="0.4833" stroke-miterlimit="10" d="M167.703,53.733
		c-0.976-0.812-1.463-1.798-1.463-2.956h1.127c0,0.875,0.375,1.625,1.128,2.255c0.75,0.61,1.655,0.914,2.712,0.914
		c1.218,0,2.203-0.274,2.955-0.822c0.731-0.57,1.098-1.311,1.098-2.225c0-0.691-0.386-1.28-1.158-1.768
		c-0.772-0.466-1.81-0.762-3.109-0.883c-1.381-0.122-2.479-0.508-3.29-1.157c-0.833-0.651-1.25-1.453-1.25-2.409
		c0-1.076,0.417-1.91,1.25-2.499c0.833-0.589,2-0.884,3.504-0.884c1.441,0,2.59,0.316,3.443,0.945
		c0.873,0.629,1.311,1.473,1.311,2.529h-1.158c-0.143-0.792-0.528-1.412-1.158-1.858c-0.63-0.446-1.443-0.67-2.438-0.67
		c-1.098,0-1.972,0.224-2.622,0.67c-0.649,0.447-0.975,1.036-0.975,1.767c0,0.691,0.396,1.28,1.188,1.768
		c0.772,0.468,1.808,0.762,3.108,0.883c1.361,0.123,2.458,0.529,3.291,1.219c0.813,0.691,1.219,1.555,1.219,2.59
		c0,1.158-0.478,2.083-1.432,2.773c-0.935,0.691-2.193,1.037-3.778,1.037C169.824,54.953,168.656,54.546,167.703,53.733z"/>
	<path d="M180.075,54.251c-0.469-0.528-0.702-1.178-0.702-1.95V42.58h-1.858v-0.943h1.858v-3.688h1.219v3.688h1.768v0.943h-1.768
		v9.721c0,0.508,0.132,0.945,0.396,1.312c0.244,0.365,0.548,0.547,0.914,0.547c0.386,0,0.702-0.071,0.944-0.212v0.883
		c-0.447,0.163-0.792,0.245-1.035,0.245C181.141,55.075,180.562,54.8,180.075,54.251"/>
	<path fill="none" stroke="#000000" stroke-width="0.4833" stroke-miterlimit="10" d="M180.075,54.251
		c-0.469-0.528-0.702-1.178-0.702-1.95V42.58h-1.858v-0.943h1.858v-3.688h1.219v3.688h1.768v0.943h-1.768v9.721
		c0,0.508,0.132,0.945,0.396,1.312c0.244,0.365,0.548,0.547,0.914,0.547c0.386,0,0.702-0.071,0.944-0.212v0.883
		c-0.447,0.163-0.792,0.245-1.035,0.245C181.141,55.075,180.562,54.8,180.075,54.251z"/>
	<path d="M185.803,53.185c-1.057-1.28-1.584-2.966-1.584-5.059c0-2.092,0.527-3.778,1.584-5.058c1.055-1.26,2.458-1.889,4.204-1.889
		c1.748,0,3.149,0.579,4.206,1.736c1.056,1.158,1.585,2.702,1.585,4.631v0.579h-10.361c0,1.768,0.416,3.18,1.25,4.236
		c0.833,1.057,1.94,1.585,3.321,1.585c1.037,0,1.971-0.274,2.805-0.823c0.854-0.569,1.441-1.31,1.768-2.225h1.219
		c-0.203,1.2-0.854,2.194-1.95,2.986c-1.098,0.793-2.378,1.189-3.841,1.189C188.261,55.075,186.858,54.445,185.803,53.185
		 M194.58,46.968v-0.456c-0.103-1.199-0.59-2.214-1.463-3.048c-0.895-0.812-1.931-1.218-3.109-1.218
		c-1.178,0-2.204,0.416-3.077,1.25c-0.894,0.854-1.393,1.9-1.494,3.139v0.334H194.58z"/>
	<path fill="none" stroke="#000000" stroke-width="0.4833" stroke-miterlimit="10" d="M185.803,53.185
		c-1.057-1.28-1.584-2.966-1.584-5.059c0-2.092,0.527-3.778,1.584-5.058c1.055-1.26,2.458-1.889,4.204-1.889
		c1.748,0,3.149,0.579,4.206,1.736c1.056,1.158,1.585,2.702,1.585,4.631v0.579h-10.361c0,1.768,0.416,3.18,1.25,4.236
		c0.833,1.057,1.94,1.585,3.321,1.585c1.037,0,1.971-0.274,2.805-0.823c0.854-0.569,1.441-1.31,1.768-2.225h1.219
		c-0.203,1.2-0.854,2.194-1.95,2.986c-1.098,0.793-2.378,1.189-3.841,1.189C188.261,55.075,186.858,54.445,185.803,53.185z
		 M194.58,46.968v-0.456c-0.103-1.199-0.59-2.214-1.463-3.048c-0.895-0.812-1.931-1.218-3.109-1.218
		c-1.178,0-2.204,0.416-3.077,1.25c-0.894,0.854-1.393,1.9-1.494,3.139v0.334H194.58z"/>
	<path d="M198.663,54.617V41.636h1.22v2.925c0.344-0.934,0.852-1.697,1.521-2.285c0.691-0.569,1.422-0.853,2.195-0.853h0.7v1.401
		c-0.061,0-0.132-0.021-0.213-0.062c-0.061-0.041-0.102-0.06-0.122-0.06c-0.955,0-1.818,0.406-2.59,1.218s-1.27,1.839-1.492,3.078
		v7.618H198.663z"/>
	<path fill="none" stroke="#000000" stroke-width="0.4833" stroke-miterlimit="10" d="M198.663,54.617V41.636h1.22v2.925
		c0.344-0.934,0.852-1.697,1.521-2.285c0.691-0.569,1.422-0.853,2.195-0.853h0.7v1.401c-0.061,0-0.132-0.021-0.213-0.062
		c-0.061-0.041-0.102-0.06-0.122-0.06c-0.955,0-1.818,0.406-2.59,1.218s-1.27,1.839-1.492,3.078v7.618H198.663z"/>
	<path d="M217.404,52.301c-1.463-1.686-2.195-3.921-2.195-6.705c0-2.885,0.732-5.19,2.195-6.916c1.462-1.728,3.412-2.591,5.85-2.591
		s4.389,0.863,5.852,2.591c1.463,1.726,2.193,4.031,2.193,6.916c0,2.783-0.73,5.019-2.193,6.705
		c-1.463,1.686-3.414,2.529-5.852,2.529S218.866,53.987,217.404,52.301 M228.22,51.479c1.239-1.463,1.859-3.423,1.859-5.882
		c0-2.519-0.62-4.54-1.859-6.064c-1.238-1.523-2.895-2.285-4.967-2.285c-2.071,0-3.728,0.762-4.967,2.285
		c-1.238,1.524-1.858,3.545-1.858,6.064c0,2.458,0.62,4.419,1.858,5.882c1.239,1.483,2.896,2.225,4.967,2.225
		C225.326,53.703,226.982,52.962,228.22,51.479"/>
	<path fill="none" stroke="#000000" stroke-width="0.4833" stroke-miterlimit="10" d="M217.404,52.301
		c-1.463-1.686-2.195-3.921-2.195-6.705c0-2.885,0.732-5.19,2.195-6.916c1.462-1.728,3.412-2.591,5.85-2.591
		s4.389,0.863,5.852,2.591c1.463,1.726,2.193,4.031,2.193,6.916c0,2.783-0.73,5.019-2.193,6.705
		c-1.463,1.686-3.414,2.529-5.852,2.529S218.866,53.987,217.404,52.301z M228.22,51.479c1.239-1.463,1.859-3.423,1.859-5.882
		c0-2.519-0.62-4.54-1.859-6.064c-1.238-1.523-2.895-2.285-4.967-2.285c-2.071,0-3.728,0.762-4.967,2.285
		c-1.238,1.524-1.858,3.545-1.858,6.064c0,2.458,0.62,4.419,1.858,5.882c1.239,1.483,2.896,2.225,4.967,2.225
		C225.326,53.703,226.982,52.962,228.22,51.479z"/>
	<path d="M234.224,54.617V41.636h1.22v2.925c0.345-0.934,0.853-1.697,1.522-2.285c0.69-0.569,1.422-0.853,2.195-0.853h0.699v1.401
		c-0.061,0-0.131-0.021-0.213-0.062c-0.06-0.041-0.102-0.06-0.121-0.06c-0.955,0-1.818,0.406-2.59,1.218
		c-0.772,0.813-1.27,1.839-1.493,3.078v7.618H234.224z"/>
	<path fill="none" stroke="#000000" stroke-width="0.4833" stroke-miterlimit="10" d="M234.224,54.617V41.636h1.22v2.925
		c0.345-0.934,0.853-1.697,1.522-2.285c0.69-0.569,1.422-0.853,2.195-0.853h0.699v1.401c-0.061,0-0.131-0.021-0.213-0.062
		c-0.06-0.041-0.102-0.06-0.121-0.06c-0.955,0-1.818,0.406-2.59,1.218c-0.772,0.813-1.27,1.839-1.493,3.078v7.618H234.224z"/>
	<path d="M241.996,36.546h1.219v1.859h-1.219V36.546z M241.996,41.636h1.219v12.981h-1.219V41.636z"/>
	<path fill="none" stroke="#000000" stroke-width="0.4833" stroke-miterlimit="10" d="M241.996,36.546h1.219v1.859h-1.219V36.546z
		 M241.996,41.636h1.219v12.981h-1.219V41.636z"/>
	<path d="M247.968,58.03c-1.098-0.834-1.646-1.828-1.646-2.986h1.158c0,0.873,0.426,1.625,1.279,2.255
		c0.873,0.609,1.92,0.915,3.139,0.915c1.342,0,2.408-0.356,3.2-1.067c0.812-0.711,1.219-1.667,1.219-2.865v-2.65
		c-0.386,0.853-0.976,1.522-1.768,2.011c-0.812,0.507-1.687,0.761-2.62,0.761c-1.707,0-3.068-0.598-4.083-1.797
		c-1.038-1.219-1.555-2.824-1.555-4.814c0-1.992,0.517-3.596,1.555-4.815c1.015-1.199,2.376-1.797,4.083-1.797
		c0.994,0,1.898,0.264,2.711,0.792c0.793,0.528,1.352,1.229,1.677,2.103v-2.438h1.218v12.675c0,1.565-0.497,2.774-1.492,3.627
		c-0.975,0.873-2.355,1.31-4.145,1.31C250.355,59.249,249.044,58.842,247.968,58.03 M255.037,51.813
		c0.854-1.117,1.28-2.458,1.28-4.022c0-1.564-0.427-2.905-1.28-4.022c-0.853-1.098-1.889-1.646-3.107-1.646
		c-1.34,0-2.408,0.519-3.2,1.554c-0.812,1.037-1.22,2.408-1.22,4.115c0,1.706,0.408,3.077,1.22,4.114
		c0.792,1.036,1.86,1.554,3.2,1.554C253.148,53.459,254.184,52.911,255.037,51.813"/>
	<path fill="none" stroke="#000000" stroke-width="0.4833" stroke-miterlimit="10" d="M247.968,58.03
		c-1.098-0.834-1.646-1.828-1.646-2.986h1.158c0,0.873,0.426,1.625,1.279,2.255c0.873,0.609,1.92,0.915,3.139,0.915
		c1.342,0,2.408-0.356,3.2-1.067c0.812-0.711,1.219-1.667,1.219-2.865v-2.65c-0.386,0.853-0.976,1.522-1.768,2.011
		c-0.812,0.507-1.687,0.761-2.62,0.761c-1.707,0-3.068-0.598-4.083-1.797c-1.038-1.219-1.555-2.824-1.555-4.814
		c0-1.992,0.517-3.596,1.555-4.815c1.015-1.199,2.376-1.797,4.083-1.797c0.994,0,1.898,0.264,2.711,0.792
		c0.793,0.528,1.352,1.229,1.677,2.103v-2.438h1.218v12.675c0,1.565-0.497,2.774-1.492,3.627c-0.975,0.873-2.355,1.31-4.145,1.31
		C250.355,59.249,249.044,58.842,247.968,58.03z M255.037,51.813c0.854-1.117,1.28-2.458,1.28-4.022c0-1.564-0.427-2.905-1.28-4.022
		c-0.853-1.098-1.889-1.646-3.107-1.646c-1.34,0-2.408,0.519-3.2,1.554c-0.812,1.037-1.22,2.408-1.22,4.115
		c0,1.706,0.408,3.077,1.22,4.114c0.792,1.036,1.86,1.554,3.2,1.554C253.148,53.459,254.184,52.911,255.037,51.813z"/>
	<path d="M261.437,36.546h1.219v1.859h-1.219V36.546z M261.437,41.636h1.219v12.981h-1.219V41.636z"/>
	<path fill="none" stroke="#000000" stroke-width="0.4833" stroke-miterlimit="10" d="M261.437,36.546h1.219v1.859h-1.219V36.546z
		 M261.437,41.636h1.219v12.981h-1.219V41.636z"/>
	<path d="M266.556,54.617V41.636h1.22v2.194c0.365-0.772,0.924-1.382,1.676-1.829c0.751-0.466,1.585-0.701,2.499-0.701
		c1.279,0,2.366,0.416,3.262,1.25c0.913,0.854,1.369,1.87,1.369,3.046v9.021h-1.219v-9.021c0-0.893-0.335-1.655-1.005-2.285
		c-0.671-0.629-1.474-0.945-2.407-0.945c-1.017,0-1.92,0.346-2.712,1.037c-0.793,0.711-1.28,1.594-1.463,2.65v8.563H266.556z"/>
	<path fill="none" stroke="#000000" stroke-width="0.4833" stroke-miterlimit="10" d="M266.556,54.617V41.636h1.22v2.194
		c0.365-0.772,0.924-1.382,1.676-1.829c0.751-0.466,1.585-0.701,2.499-0.701c1.279,0,2.366,0.416,3.262,1.25
		c0.913,0.854,1.369,1.87,1.369,3.046v9.021h-1.219v-9.021c0-0.893-0.335-1.655-1.005-2.285c-0.671-0.629-1.474-0.945-2.407-0.945
		c-1.017,0-1.92,0.346-2.712,1.037c-0.793,0.711-1.28,1.594-1.463,2.65v8.563H266.556z"/>
	<path d="M280.574,54.007c-0.914-0.73-1.371-1.604-1.371-2.62c0-0.976,0.447-1.829,1.34-2.56c0.874-0.731,1.971-1.158,3.291-1.28
		c1.281-0.122,2.327-0.324,3.141-0.609c0.832-0.284,1.248-0.62,1.248-1.005v-1.158c0-0.671-0.365-1.239-1.096-1.706
		c-0.712-0.467-1.585-0.702-2.621-0.702c-0.975,0-1.818,0.224-2.53,0.671c-0.69,0.467-1.034,1.016-1.034,1.645v0.671h-1.158v-0.793
		c0-0.873,0.456-1.615,1.37-2.224c0.935-0.61,2.052-0.915,3.353-0.915c1.34,0,2.488,0.294,3.443,0.883
		c0.954,0.59,1.432,1.301,1.432,2.133v7.862c0,0.508,0.112,0.945,0.335,1.311c0.224,0.365,0.498,0.547,0.823,0.547
		c0.102,0,0.193-0.009,0.274-0.03c0.081-0.02,0.142-0.05,0.183-0.091v0.579c-0.305,0.142-0.691,0.213-1.157,0.213
		c-0.468,0-0.874-0.203-1.22-0.608c-0.325-0.407-0.487-0.894-0.487-1.463c-0.244,0.691-0.762,1.249-1.555,1.676
		c-0.792,0.426-1.706,0.64-2.743,0.64C282.554,55.075,281.467,54.718,280.574,54.007 M286.699,53.093
		c0.833-0.69,1.342-1.573,1.523-2.651v-2.985c-0.284,0.243-0.803,0.446-1.553,0.609c-0.713,0.164-1.656,0.294-2.836,0.396
		c-0.953,0.082-1.756,0.406-2.406,0.975c-0.65,0.548-0.976,1.199-0.976,1.95c0,0.772,0.336,1.422,1.005,1.951
		c0.65,0.549,1.443,0.822,2.377,0.822C284.911,54.159,285.866,53.805,286.699,53.093"/>
	<path fill="none" stroke="#000000" stroke-width="0.4833" stroke-miterlimit="10" d="M280.574,54.007
		c-0.914-0.73-1.371-1.604-1.371-2.62c0-0.976,0.447-1.829,1.34-2.56c0.874-0.731,1.971-1.158,3.291-1.28
		c1.281-0.122,2.327-0.324,3.141-0.609c0.832-0.284,1.248-0.62,1.248-1.005v-1.158c0-0.671-0.365-1.239-1.096-1.706
		c-0.712-0.467-1.585-0.702-2.621-0.702c-0.975,0-1.818,0.224-2.53,0.671c-0.69,0.467-1.034,1.016-1.034,1.645v0.671h-1.158v-0.793
		c0-0.873,0.456-1.615,1.37-2.224c0.935-0.61,2.052-0.915,3.353-0.915c1.34,0,2.488,0.294,3.443,0.883
		c0.954,0.59,1.432,1.301,1.432,2.133v7.862c0,0.508,0.112,0.945,0.335,1.311c0.224,0.365,0.498,0.547,0.823,0.547
		c0.102,0,0.193-0.009,0.274-0.03c0.081-0.02,0.142-0.05,0.183-0.091v0.579c-0.305,0.142-0.691,0.213-1.157,0.213
		c-0.468,0-0.874-0.203-1.22-0.608c-0.325-0.407-0.487-0.894-0.487-1.463c-0.244,0.691-0.762,1.249-1.555,1.676
		c-0.792,0.426-1.706,0.64-2.743,0.64C282.554,55.075,281.467,54.718,280.574,54.007z M286.699,53.093
		c0.833-0.69,1.342-1.573,1.523-2.651v-2.985c-0.284,0.243-0.803,0.446-1.553,0.609c-0.713,0.164-1.656,0.294-2.836,0.396
		c-0.953,0.082-1.756,0.406-2.406,0.975c-0.65,0.548-0.976,1.199-0.976,1.95c0,0.772,0.336,1.422,1.005,1.951
		c0.65,0.549,1.443,0.822,2.377,0.822C284.911,54.159,285.866,53.805,286.699,53.093z"/>
	<rect x="293.343" y="36.546" width="1.219" height="18.07"/>
	
		<rect x="293.343" y="36.546" fill="none" stroke="#000000" stroke-width="0.4833" stroke-miterlimit="10" width="1.219" height="18.07"/>
	<polygon points="308.212,54.617 308.212,36.546 310.132,36.546 316.746,53.093 323.328,36.546 325.248,36.546 325.248,54.617 
		324.029,54.617 324.029,37.948 317.294,54.617 316.167,54.617 309.432,37.948 309.432,54.617 	"/>
	<polygon fill="none" stroke="#000000" stroke-width="0.4833" stroke-miterlimit="10" points="308.212,54.617 308.212,36.546 
		310.132,36.546 316.746,53.093 323.328,36.546 325.248,36.546 325.248,54.617 324.029,54.617 324.029,37.948 317.294,54.617 
		316.167,54.617 309.432,37.948 309.432,54.617 	"/>
	<path d="M330,53.001c-1.117-1.219-1.677-2.843-1.677-4.875c0-2.092,0.56-3.778,1.677-5.058c1.097-1.26,2.569-1.89,4.419-1.89
		c1.828,0,3.301,0.63,4.418,1.89c1.098,1.28,1.646,2.965,1.646,5.058c0,2.032-0.549,3.657-1.646,4.875
		c-1.117,1.22-2.59,1.829-4.418,1.829C332.57,54.831,331.097,54.222,330,53.001 M337.954,52.271
		c0.874-1.036,1.311-2.417,1.311-4.145c0-1.787-0.437-3.209-1.311-4.266c-0.894-1.077-2.071-1.615-3.534-1.615
		c-1.483,0-2.662,0.538-3.535,1.615c-0.895,1.057-1.342,2.479-1.342,4.266c0,1.727,0.447,3.109,1.342,4.145
		c0.873,1.036,2.052,1.554,3.535,1.554C335.882,53.825,337.06,53.306,337.954,52.271"/>
	<path fill="none" stroke="#000000" stroke-width="0.4833" stroke-miterlimit="10" d="M330,53.001
		c-1.117-1.219-1.677-2.843-1.677-4.875c0-2.092,0.56-3.778,1.677-5.058c1.097-1.26,2.569-1.89,4.419-1.89
		c1.828,0,3.301,0.63,4.418,1.89c1.098,1.28,1.646,2.965,1.646,5.058c0,2.032-0.549,3.657-1.646,4.875
		c-1.117,1.22-2.59,1.829-4.418,1.829C332.57,54.831,331.097,54.222,330,53.001z M337.954,52.271
		c0.874-1.036,1.311-2.417,1.311-4.145c0-1.787-0.437-3.209-1.311-4.266c-0.894-1.077-2.071-1.615-3.534-1.615
		c-1.483,0-2.662,0.538-3.535,1.615c-0.895,1.057-1.342,2.479-1.342,4.266c0,1.727,0.447,3.109,1.342,4.145
		c0.873,1.036,2.052,1.554,3.535,1.554C335.882,53.825,337.06,53.306,337.954,52.271z"/>
	<path d="M344.353,52.94c-1.117-1.318-1.676-2.925-1.676-4.813c0-1.909,0.559-3.546,1.676-4.907c1.119-1.36,2.459-2.042,4.023-2.042
		c0.995,0,1.909,0.295,2.743,0.884c0.812,0.609,1.401,1.401,1.767,2.377v-7.893h1.219v18.07h-1.219v-2.65
		c-0.324,0.894-0.904,1.614-1.737,2.164c-0.813,0.548-1.735,0.822-2.772,0.822C346.812,54.952,345.472,54.282,344.353,52.94
		 M351.576,52.301c0.873-1.158,1.311-2.549,1.311-4.174s-0.438-3.007-1.311-4.145c-0.895-1.158-1.96-1.737-3.199-1.737
		c-1.24,0-2.296,0.579-3.17,1.737c-0.873,1.138-1.311,2.52-1.311,4.145s0.438,3.017,1.311,4.174c0.874,1.158,1.93,1.737,3.17,1.737
		C349.616,54.038,350.681,53.458,351.576,52.301"/>
	<path fill="none" stroke="#000000" stroke-width="0.4833" stroke-miterlimit="10" d="M344.353,52.94
		c-1.117-1.318-1.676-2.925-1.676-4.813c0-1.909,0.559-3.546,1.676-4.907c1.119-1.36,2.459-2.042,4.023-2.042
		c0.995,0,1.909,0.295,2.743,0.884c0.812,0.609,1.401,1.401,1.767,2.377v-7.893h1.219v18.07h-1.219v-2.65
		c-0.324,0.894-0.904,1.614-1.737,2.164c-0.813,0.548-1.735,0.822-2.772,0.822C346.812,54.952,345.472,54.282,344.353,52.94z
		 M351.576,52.301c0.873-1.158,1.311-2.549,1.311-4.174s-0.438-3.007-1.311-4.145c-0.895-1.158-1.96-1.737-3.199-1.737
		c-1.24,0-2.296,0.579-3.17,1.737c-0.873,1.138-1.311,2.52-1.311,4.145s0.438,3.017,1.311,4.174c0.874,1.158,1.93,1.737,3.17,1.737
		C349.616,54.038,350.681,53.458,351.576,52.301z"/>
	<path d="M358.797,53.185c-1.056-1.28-1.585-2.966-1.585-5.059c0-2.092,0.529-3.778,1.585-5.058c1.056-1.26,2.458-1.889,4.204-1.889
		c1.748,0,3.15,0.579,4.206,1.736c1.057,1.158,1.585,2.702,1.585,4.631v0.579h-10.361c0,1.768,0.416,3.18,1.25,4.236
		c0.832,1.057,1.939,1.585,3.32,1.585c1.037,0,1.971-0.274,2.805-0.823c0.854-0.569,1.441-1.31,1.768-2.225h1.219
		c-0.203,1.2-0.854,2.194-1.95,2.986c-1.098,0.793-2.378,1.189-3.841,1.189C361.255,55.075,359.853,54.445,358.797,53.185
		 M367.574,46.968v-0.456c-0.102-1.199-0.59-2.214-1.463-3.048c-0.895-0.812-1.93-1.218-3.109-1.218
		c-1.178,0-2.204,0.416-3.076,1.25c-0.895,0.854-1.393,1.9-1.494,3.139v0.334H367.574z"/>
	<path fill="none" stroke="#000000" stroke-width="0.4833" stroke-miterlimit="10" d="M358.797,53.185
		c-1.056-1.28-1.585-2.966-1.585-5.059c0-2.092,0.529-3.778,1.585-5.058c1.056-1.26,2.458-1.889,4.204-1.889
		c1.748,0,3.15,0.579,4.206,1.736c1.057,1.158,1.585,2.702,1.585,4.631v0.579h-10.361c0,1.768,0.416,3.18,1.25,4.236
		c0.832,1.057,1.939,1.585,3.32,1.585c1.037,0,1.971-0.274,2.805-0.823c0.854-0.569,1.441-1.31,1.768-2.225h1.219
		c-0.203,1.2-0.854,2.194-1.95,2.986c-1.098,0.793-2.378,1.189-3.841,1.189C361.255,55.075,359.853,54.445,358.797,53.185z
		 M367.574,46.968v-0.456c-0.102-1.199-0.59-2.214-1.463-3.048c-0.895-0.812-1.93-1.218-3.109-1.218
		c-1.178,0-2.204,0.416-3.076,1.25c-0.895,0.854-1.393,1.9-1.494,3.139v0.334H367.574z"/>
	<rect x="371.658" y="36.546" width="1.219" height="18.07"/>
	
		<rect x="371.658" y="36.546" fill="none" stroke="#000000" stroke-width="0.4833" stroke-miterlimit="10" width="1.219" height="18.07"/>
	<path d="M167.027,74.917v43.545h34.645c3.006-3.654,4.749-5.48,5.229-5.48c0.479,0,1.852,0.992,4.117,2.979
		c2.223,1.984,3.333,3.137,3.333,3.455c0,0.477-0.175,0.715-0.522,0.715h-46.868v2.084c0,1.469-2.158,2.205-6.471,2.205
		c-1.7,0-2.55-0.418-2.55-1.252c0.218-8.219,0.327-13.898,0.327-17.037V82.362c0-4.963-0.219-8.816-0.653-11.556
		c2.265,0.517,5.621,1.331,10.066,2.442h32.421c3.269-3.216,5.099-4.825,5.491-4.825c0.436,0,1.787,0.874,4.053,2.621
		c2.266,1.748,3.4,2.781,3.4,3.098c0,0.517-0.219,0.774-0.655,0.774H167.027z M199.777,75.393c0.131,0,1.59,0.934,4.379,2.8
		c2.832,1.866,4.248,2.998,4.248,3.394c0,0.518-0.326,0.775-0.98,0.775c-0.131,0-0.24-0.02-0.327-0.061
		c-1.175-0.237-1.938-0.356-2.287-0.356c-0.088,0-0.153,0.021-0.196,0.06c-6.973,1.668-14.469,2.502-22.486,2.502h-0.261v7.326
		h16.995c3.139-3.336,4.924-5.003,5.359-5.003c0.35,0,1.591,0.874,3.727,2.621c2.178,1.748,3.268,2.78,3.268,3.097
		c0,0.478-0.217,0.715-0.653,0.715h-12.223v11.676c0,0.637,0.086,3.676,0.261,9.115c0,1.23-2.136,1.846-6.406,1.846
		c-1.48,0-2.223-0.438-2.223-1.311v-0.059c0.087-3.932,0.131-7.406,0.131-10.426V93.263h-8.366v0.597
		c0,10.843-4.576,18.327-13.728,22.458l-0.718-0.715c4.139-4.965,6.21-11.834,6.21-20.611v-5.838c0-3.613-0.219-6.434-0.654-8.459
		c1.873,0.396,3.442,0.755,4.706,1.072c1.351,0.357,2.898,0.755,4.641,1.191c1.699-0.199,4.598-1.152,8.693-2.859
		C195.025,78.392,197.988,76.823,199.777,75.393"/>
	<path d="M294.989,73.427c3.312-3.336,5.142-5.004,5.491-5.004c0.479,0,1.808,0.855,3.988,2.562c2.222,1.708,3.334,2.78,3.334,3.217
		c0,0.476-0.284,0.715-0.852,0.715h-17.257c-2.178,2.979-5.556,5.44-10.132,7.385h12.42c2.703-2.024,4.227-3.037,4.577-3.037
		c0.391,0,1.589,0.615,3.594,1.847c2.004,1.231,3.007,2.104,3.007,2.621c0,0.397-0.131,0.655-0.392,0.774
		c-1.22,0.715-1.831,1.391-1.831,2.025v5.302c0,0.556,0.087,3.794,0.262,9.71c0,1.35-2.025,2.025-6.079,2.025
		c-1.698,0-2.549-0.357-2.549-1.072v-1.668h-4.183v16.68c0,2.184-1.178,3.852-3.531,5.004c-2.311,1.191-4.162,1.787-5.555,1.787
		c-0.785,0-1.221-0.537-1.309-1.609c-0.219-1.707-0.697-2.959-1.438-3.752c-0.698-0.834-2.331-1.51-4.903-2.025l0.131-1.072
		c2.224,0.199,4.336,0.297,6.341,0.297h0.719c0.871,0,1.308-0.475,1.308-1.428v-13.881h-4.837v0.654c0,1.311-2.114,1.967-6.34,1.967
		c-1.527,0-2.289-0.377-2.289-1.133c0.218-5.439,0.328-8.479,0.328-9.113v-3.872c0-3.853-0.154-7.069-0.459-9.649
		c1.918,0.516,3.552,0.973,4.902,1.369c1.352,0.397,2.812,0.814,4.381,1.25h2.092c0.74-2.5,1.111-4.963,1.111-7.385h-16.865v16.559
		c0,10.961-1.241,18.547-3.727,22.756c-2.482,4.25-5.927,7.506-10.326,9.771l-0.721-0.656c4.096-4.568,6.145-15.031,6.145-31.394
		v-9.472c0-5.52-0.153-9.471-0.457-11.854c1.83,0.438,3.508,0.875,5.033,1.311c1.524,0.477,3.115,0.934,4.771,1.37L294.989,73.427z
		 M257.534,120.249l-0.522-0.537c5.795-4.447,9.761-9.689,11.896-15.727c6.406,2.424,9.609,3.934,9.609,4.527
		c0,0.439-0.719,0.676-2.157,0.715c-0.522,0.041-0.808,0.08-0.851,0.119C271.283,114.392,265.291,118.024,257.534,120.249
		 M292.701,83.911h-17.32v6.493h17.32V83.911z M292.701,91.834h-17.32v7.565h17.32V91.834z M290.414,106.19l0.457-0.715
		c4.141,0.518,7.932,1.648,11.374,3.396s5.164,3.811,5.164,6.193c0,2.82-1.307,4.23-3.922,4.23c-1.351,0-2.81-1.51-4.38-4.527
		C296.927,110.798,294.03,107.938,290.414,106.19"/>
	<path d="M336.498,74.321c-1.919,2.462-3.465,4.209-4.642,5.243c5.055,0.158,7.582,1.727,7.582,4.705
		c0,2.383-1.46,3.574-4.379,3.574c-1.7,0-2.593-0.914-2.681-2.74c-0.043-2.859-0.61-4.289-1.699-4.289
		c-2.397,2.264-5.187,4.25-8.367,5.957l5.884,1.728h12.681c2.18-1.668,3.399-2.502,3.66-2.502c0.35,0,1.439,0.575,3.27,1.728
		c1.83,1.112,2.744,1.926,2.744,2.442c0,0.278-0.129,0.517-0.392,0.715c-0.959,0.714-1.438,1.19-1.438,1.429v4.767
		c0,0.636,0.108,3.038,0.328,7.208c0,1.191-1.896,1.787-5.688,1.787c-1.395,0-2.092-0.377-2.092-1.133v-0.834h-13.793
		c-0.088,1.471-0.305,2.701-0.653,3.695c1.351,0.316,3.399,0.834,6.146,1.547h8.431c2.179-1.787,3.421-2.68,3.728-2.68
		c0.434,0,1.61,0.535,3.528,1.607c1.917,1.033,2.876,1.809,2.876,2.324c0,0.318-0.152,0.576-0.457,0.773
		c-0.959,0.678-1.438,1.152-1.438,1.43v3.932c0,0.438,0.021,1.49,0.064,3.158c0.043,0.873,0.087,1.609,0.131,2.203
		c0,1.191-2.005,1.789-6.014,1.789c-1.264,0-1.895-0.379-1.895-1.133v-2.322h-9.282v2.262c0,1.111-1.874,1.668-5.622,1.668
		c-1.526,0-2.288-0.338-2.288-1.012c0.131-2.543,0.196-4.408,0.196-5.6v-4.646c-2.528,5.322-5.948,8.795-10.262,10.424l-0.59-0.596
		c3.792-4.209,5.688-12.906,5.688-26.091c0-3.892-0.131-6.851-0.393-8.876c-1.873,0.795-3.508,1.331-4.902,1.607l-0.393-0.834
		c3.792-2.342,7.061-5.578,9.807-9.709c2.787-4.089,4.465-7.625,5.033-10.603c7.537,1.906,11.309,3.118,11.309,3.633
		c0,0.755-0.895,1.132-2.682,1.132c3.269,0.319,6.428,1.251,9.479,2.8c3.007,1.549,4.51,3.356,4.51,5.42
		c0,2.701-1.395,4.051-4.182,4.051c-1.745,0-3.161-1.23-4.249-3.693c-0.873-2.024-2.093-3.772-3.662-5.242
		C337.87,75.056,336.89,74.321,336.498,74.321 M341.335,96.778h-13.598v2.918c0,1.113-0.021,2.047-0.064,2.801h13.662V96.778z
		 M341.335,89.927h-13.598v5.361h13.598V89.927z M342.054,110.837h-9.282v8.221h9.282V110.837z M353.231,83.792
		c0-4.686-0.174-8.061-0.522-10.126c6.623,1.033,9.936,1.846,9.936,2.442c0,0.318-0.174,0.536-0.523,0.655
		c-1.046,0.477-1.568,0.795-1.568,0.954v20.431c0,0.994,0.107,4.43,0.326,10.307c0,1.111-1.853,1.668-5.556,1.668
		c-1.569,0-2.353-0.377-2.353-1.133v-0.059c0.173-5.043,0.261-9.035,0.261-11.974V83.792z M372.58,116.614
		c0,3.934-2.658,6.436-7.975,7.506h-0.064c-0.481,0.119-0.873,0.18-1.178,0.18c-0.742,0-1.177-0.297-1.307-0.895
		c-0.35-2.344-0.807-3.912-1.373-4.705c-0.611-0.834-2.659-1.629-6.145-2.383l0.262-1.191c2.746,0.197,5.533,0.299,8.367,0.299
		c0.87,0,1.308-0.418,1.308-1.252V78.908c0-4.686-0.175-8.042-0.524-10.067c7.104,0.993,10.655,1.787,10.655,2.382
		c0,0.319-0.196,0.537-0.589,0.656c-0.958,0.437-1.438,0.774-1.438,1.012V116.614z"/>
	<path d="M75.989,132.532c-31.178,0-56.544-25.365-56.544-56.543c0-31.178,25.366-56.544,56.544-56.544
		c12.855,0,24.966,4.202,35.026,12.151l12.056-15.256C109.544,5.65,93.264,0,75.989,0C34.089,0,0,34.089,0,75.989
		c0,41.901,34.089,75.989,75.989,75.989c20.936,0,41.153-8.768,55.47-24.051l-14.192-13.295
		C106.456,126.177,91.796,132.532,75.989,132.532"/>
	<path d="M132.413,66.266H46.158c1.822-5.621,5.199-10.62,9.87-14.466c6.46-5.32,14.599-7.807,22.936-6.999
		c6.251,0.605,12.099,3.028,16.914,7.007l12.388-14.987c-7.816-6.461-17.301-10.394-27.428-11.375
		C67.35,24.145,54.139,28.167,43.667,36.79c-10.469,8.622-16.955,20.804-18.262,34.304c-2.342,24.192,12.856,46.732,36.139,53.593
		l5.497-18.652c-10.111-2.98-17.728-10.768-20.856-20.322H105.7c-3.545,10.81-12.801,19.121-24.32,21.141l3.359,19.154
		c20.771-3.643,37.039-19.883,41.032-40.295h6.642c0.55-3.16,0.839-6.408,0.839-9.723C133.252,72.674,132.963,69.426,132.413,66.266
		"/>
	<circle fill="#9C1F24" cx="134.281" cy="111.396" r="8.438"/>
	<circle fill="#9C1F24" cx="230.995" cy="98.563" r="8.438"/>
</g>
</svg>
