<?xml version="1.0" encoding="utf-8"?>
<!-- Generator: Adobe Illustrator 16.0.0, SVG Export Plug-In . SVG Version: 6.00 Build 0)  -->
<!DOCTYPE svg PUBLIC "-//W3C//DTD SVG 1.1//EN" "http://www.w3.org/Graphics/SVG/1.1/DTD/svg11.dtd">
<svg version="1.1" id="圖層_1" xmlns="http://www.w3.org/2000/svg" xmlns:xlink="http://www.w3.org/1999/xlink" x="0px" y="0px"
	 width="2235.501px" height="34.333px" viewBox="0 0 2235.501 34.333" enable-background="new 0 0 2235.501 34.333"
	 xml:space="preserve">
<g>
	<rect fill="#F8B62D" width="2235.501" height="34.333"/>
	<g>
		<g>
			<g>
				<polygon points="16.748,27.877 0,27.877 10.333,6.456 27.085,6.456 				"/>
			</g>
		</g>
		<g>
			<g>
				<polygon points="60.582,27.877 43.833,27.877 54.167,6.456 70.918,6.456 				"/>
			</g>
		</g>
		<g>
			<g>
				<polygon points="104.415,27.877 87.667,27.877 98,6.456 114.752,6.456 				"/>
			</g>
		</g>
		<g>
			<g>
				<polygon points="148.248,27.877 131.5,27.877 141.833,6.456 158.585,6.456 				"/>
			</g>
		</g>
		<g>
			<g>
				<polygon points="192.082,27.877 175.333,27.877 185.667,6.456 202.418,6.456 				"/>
			</g>
		</g>
		<g>
			<g>
				<polygon points="235.915,27.877 219.167,27.877 229.5,6.456 246.252,6.456 				"/>
			</g>
		</g>
		<g>
			<g>
				<polygon points="279.748,27.877 263,27.877 273.333,6.456 290.085,6.456 				"/>
			</g>
		</g>
		<g>
			<g>
				<polygon points="323.582,27.877 306.833,27.877 317.167,6.456 333.918,6.456 				"/>
			</g>
		</g>
		<g>
			<g>
				<polygon points="367.415,27.877 350.667,27.877 361,6.456 377.752,6.456 				"/>
			</g>
		</g>
		<g>
			<g>
				<polygon points="674.248,27.877 657.5,27.877 667.833,6.456 684.586,6.456 				"/>
			</g>
		</g>
		<g>
			<g>
				<polygon points="718.082,27.877 701.334,27.877 711.667,6.456 728.419,6.456 				"/>
			</g>
		</g>
		<g>
			<g>
				<polygon points="761.915,27.877 745.167,27.877 755.5,6.456 772.252,6.456 				"/>
			</g>
		</g>
		<g>
			<g>
				<polygon points="805.748,27.877 789,27.877 799.334,6.456 816.086,6.456 				"/>
			</g>
		</g>
		<g>
			<g>
				<polygon points="849.582,27.877 832.834,27.877 843.167,6.456 859.919,6.456 				"/>
			</g>
		</g>
		<g>
			<g>
				<polygon points="893.415,27.877 876.667,27.877 887,6.456 903.752,6.456 				"/>
			</g>
		</g>
		<g>
			<g>
				<polygon points="937.248,27.877 920.5,27.877 930.834,6.456 947.586,6.456 				"/>
			</g>
		</g>
		<g>
			<g>
				<polygon points="981.082,27.877 964.334,27.877 974.667,6.456 991.419,6.456 				"/>
			</g>
		</g>
		<g>
			<g>
				<polygon points="1287.915,27.877 1271.167,27.877 1281.5,6.456 1298.252,6.456 				"/>
			</g>
		</g>
		<g>
			<g>
				<polygon points="1331.749,27.877 1315.001,27.877 1325.334,6.456 1342.086,6.456 				"/>
			</g>
		</g>
		<g>
			<g>
				<polygon points="1375.582,27.877 1358.834,27.877 1369.167,6.456 1385.919,6.456 				"/>
			</g>
		</g>
		<g>
			<g>
				<polygon points="1419.415,27.877 1402.667,27.877 1413,6.456 1429.752,6.456 				"/>
			</g>
		</g>
		<g>
			<g>
				<polygon points="1463.249,27.877 1446.501,27.877 1456.834,6.456 1473.586,6.456 				"/>
			</g>
		</g>
		<g>
			<g>
				<polygon points="1507.082,27.877 1490.334,27.877 1500.667,6.456 1517.419,6.456 				"/>
			</g>
		</g>
		<g>
			<g>
				<polygon points="1550.916,27.877 1534.167,27.877 1544.5,6.456 1561.253,6.456 				"/>
			</g>
		</g>
		<g>
			<g>
				<polygon points="1594.749,27.877 1578.001,27.877 1588.334,6.456 1605.086,6.456 				"/>
			</g>
		</g>
		<g>
			<g>
				<polygon points="1901.582,27.877 1884.834,27.877 1895.167,6.456 1911.919,6.456 				"/>
			</g>
		</g>
		<g>
			<g>
				<polygon points="1945.416,27.877 1928.668,27.877 1939.001,6.456 1955.753,6.456 				"/>
			</g>
		</g>
		<g>
			<g>
				<polygon points="1989.249,27.877 1972.501,27.877 1982.834,6.456 1999.586,6.456 				"/>
			</g>
		</g>
		<g>
			<g>
				<polygon points="2033.082,27.877 2016.334,27.877 2026.667,6.456 2043.42,6.456 				"/>
			</g>
		</g>
		<g>
			<g>
				<polygon points="2076.916,27.877 2060.168,27.877 2070.501,6.456 2087.253,6.456 				"/>
			</g>
		</g>
		<g>
			<g>
				<polygon points="2120.749,27.877 2104.001,27.877 2114.334,6.456 2131.086,6.456 				"/>
			</g>
		</g>
		<g>
			<g>
				<polygon points="2164.582,27.877 2147.834,27.877 2158.167,6.456 2174.92,6.456 				"/>
			</g>
		</g>
		<g>
			<g>
				<polygon points="2208.416,27.877 2191.668,27.877 2202.001,6.456 2218.753,6.456 				"/>
			</g>
		</g>
	</g>
	<g>
		<path d="M399.484,9.161h3.192v15.961h-12.769V9.161h3.192V21.93h6.385V9.161z"/>
		<path d="M418.638,15.545v9.577h-3.192v-6.384h-6.385v6.384h-3.192v-9.577H418.638z"/>
		<path d="M421.83,25.122v-9.577h9.577v-3.192h3.192v12.769H421.83z M425.022,21.93h6.385v-3.192h-6.385V21.93z"/>
		<path d="M450.561,15.545v3.192h-3.192v3.192h3.192v3.192h-9.577V21.93h3.192v-3.192h-3.192v3.192h-3.192v-6.385H450.561z"/>
		<path d="M456.946,25.122h-3.192v-9.577h9.577v3.192h-6.385V25.122z"/>
		<path d="M488.869,9.161v3.192h-9.577v9.577h9.577v3.192H476.1V9.161H488.869z"/>
		<path d="M504.83,25.122h-12.769v-9.577h12.769V25.122z M501.638,21.93v-3.192h-6.385v3.192H501.638z"/>
		<path d="M520.792,15.545v9.577H517.6v-6.384h-6.385v6.384h-3.192v-9.577H520.792z"/>
		<path d="M536.754,15.545v3.192h-6.385v3.192h6.385v3.192h-12.77V21.93h3.192v-3.192h-3.192v-3.192H536.754z"/>
		<path d="M539.945,25.122V12.353h3.192v3.192h3.192v3.192h-3.192v3.192h3.192v3.192H539.945z"/>
		<path d="M552.715,25.122h-3.192v-9.577h9.577v3.192h-6.385V25.122z"/>
		<path d="M571.869,15.545h3.192v9.577h-12.77v-9.577h3.192v6.385h6.385V15.545z"/>
		<path d="M578.253,25.122v-9.577h9.577v3.192h-6.385v3.192h6.385v3.192H578.253z"/>
		<path d="M591.022,25.122V12.353h3.192v3.192h3.192v3.192h-3.192v3.192h3.192v3.192H591.022z"/>
		<path d="M603.792,15.545H600.6v-3.192h3.192V15.545z M603.792,25.122H600.6v-6.384h3.192V25.122z"/>
		<path d="M619.754,25.122h-12.77v-9.577h12.77V25.122z M616.562,21.93v-3.192h-6.385v3.192H616.562z"/>
		<path d="M635.715,15.545v9.577h-3.192v-6.384h-6.385v6.384h-3.192v-9.577H635.715z"/>
	</g>
	<g>
		<path d="M1014.152,9.161h3.192v15.961h-12.77V9.161h3.192V21.93h6.385V9.161z"/>
		<path d="M1033.306,15.545v9.577h-3.191v-6.384h-6.385v6.384h-3.192v-9.577H1033.306z"/>
		<path d="M1036.498,25.122v-9.577h9.577v-3.192h3.192v12.769H1036.498z M1039.69,21.93h6.385v-3.192h-6.385V21.93z"/>
		<path d="M1065.229,15.545v3.192h-3.192v3.192h3.192v3.192h-9.577V21.93h3.192v-3.192h-3.192v3.192h-3.192v-6.385H1065.229z"/>
		<path d="M1071.614,25.122h-3.192v-9.577h9.577v3.192h-6.385V25.122z"/>
		<path d="M1103.537,9.161v3.192h-9.577v9.577h9.577v3.192h-12.77V9.161H1103.537z"/>
		<path d="M1119.498,25.122h-12.769v-9.577h12.769V25.122z M1116.307,21.93v-3.192h-6.385v3.192H1116.307z"/>
		<path d="M1135.46,15.545v9.577h-3.192v-6.384h-6.385v6.384h-3.192v-9.577H1135.46z"/>
		<path d="M1151.422,15.545v3.192h-6.385v3.192h6.385v3.192h-12.77V21.93h3.192v-3.192h-3.192v-3.192H1151.422z"/>
		<path d="M1154.613,25.122V12.353h3.192v3.192h3.192v3.192h-3.192v3.192h3.192v3.192H1154.613z"/>
		<path d="M1167.383,25.122h-3.192v-9.577h9.577v3.192h-6.385V25.122z"/>
		<path d="M1186.537,15.545h3.192v9.577h-12.77v-9.577h3.192v6.385h6.385V15.545z"/>
		<path d="M1192.921,25.122v-9.577h9.577v3.192h-6.385v3.192h6.385v3.192H1192.921z"/>
		<path d="M1205.69,25.122V12.353h3.192v3.192h3.192v3.192h-3.192v3.192h3.192v3.192H1205.69z"/>
		<path d="M1218.46,15.545h-3.192v-3.192h3.192V15.545z M1218.46,25.122h-3.192v-6.384h3.192V25.122z"/>
		<path d="M1234.422,25.122h-12.77v-9.577h12.77V25.122z M1231.229,21.93v-3.192h-6.385v3.192H1231.229z"/>
		<path d="M1250.383,15.545v9.577h-3.192v-6.384h-6.385v6.384h-3.192v-9.577H1250.383z"/>
	</g>
	<g>
		<path d="M1627.82,9.16h3.191v15.961h-12.769V9.16h3.192v12.769h6.385V9.16z"/>
		<path d="M1646.974,15.544v9.577h-3.192v-6.385h-6.385v6.385h-3.192v-9.577H1646.974z"/>
		<path d="M1650.166,25.122v-9.577h9.577v-3.192h3.191v12.769H1650.166z M1653.358,21.929h6.385v-3.192h-6.385V21.929z"/>
		<path d="M1678.896,15.544v3.192h-3.191v3.192h3.191v3.192h-9.576v-3.192h3.192v-3.192h-3.192v3.192h-3.192v-6.385H1678.896z"/>
		<path d="M1685.281,25.122h-3.192v-9.577h9.577v3.192h-6.385V25.122z"/>
		<path d="M1717.204,9.16v3.192h-9.576v9.577h9.576v3.192h-12.769V9.16H1717.204z"/>
		<path d="M1733.166,25.122h-12.77v-9.577h12.77V25.122z M1729.974,21.929v-3.192h-6.385v3.192H1729.974z"/>
		<path d="M1749.128,15.544v9.577h-3.192v-6.385h-6.385v6.385h-3.192v-9.577H1749.128z"/>
		<path d="M1765.09,15.544v3.192h-6.385v3.192h6.385v3.192h-12.77v-3.192h3.192v-3.192h-3.192v-3.192H1765.09z"/>
		<path d="M1768.281,25.122V12.353h3.192v3.192h3.192v3.192h-3.192v3.192h3.192v3.192H1768.281z"/>
		<path d="M1781.051,25.122h-3.192v-9.577h9.577v3.192h-6.385V25.122z"/>
		<path d="M1800.205,15.544h3.192v9.577h-12.77v-9.577h3.192v6.385h6.385V15.544z"/>
		<path d="M1806.589,25.122v-9.577h9.577v3.192h-6.385v3.192h6.385v3.192H1806.589z"/>
		<path d="M1819.358,25.122V12.353h3.192v3.192h3.192v3.192h-3.192v3.192h3.192v3.192H1819.358z"/>
		<path d="M1832.128,15.544h-3.192v-3.192h3.192V15.544z M1832.128,25.122h-3.192v-6.385h3.192V25.122z"/>
		<path d="M1848.09,25.122h-12.77v-9.577h12.77V25.122z M1844.897,21.929v-3.192h-6.385v3.192H1844.897z"/>
		<path d="M1864.051,15.544v9.577h-3.192v-6.385h-6.385v6.385h-3.192v-9.577H1864.051z"/>
	</g>
</g>
</svg>
